<svg xmlns="http://www.w3.org/2000/svg" width="367" height="400" viewBox="0 0 367 400" fill="none"><path d="M159.773 206.419C153.384 206.413 147.638 202.866 144.778 197.151L95.9708 99.6373C95.7896 99.2875 95.6398 98.9315 95.5086 98.5631C95.1089 97.4202 94.6343 96.1586 94.1284 94.8159C91.5304 87.8899 88.2891 79.2589 88.2891 71.6147C88.2891 32.1257 120.396 0 159.854 0C199.318 0 231.418 32.1257 231.418 71.6147C231.418 79.2464 228.196 87.8462 225.604 94.7659C225.092 96.1212 224.605 97.3952 224.199 98.5568C224.074 98.9315 223.912 99.2938 223.737 99.6435L174.749 197.17C171.888 202.878 166.149 206.419 159.773 206.419ZM112.97 91.7432L159.773 185.248L206.737 91.7432C207.137 90.6316 207.586 89.4325 208.061 88.1772C210.016 82.9686 212.683 75.8427 212.683 71.6147C212.683 42.4679 188.982 18.7483 159.854 18.7483C130.726 18.7483 107.025 42.4679 107.025 71.6147C107.025 75.8615 109.71 83.0061 111.665 88.2271C112.14 89.4699 112.577 90.6503 112.97 91.7432Z" fill="white"></path><path d="M159.854 114.035C136.672 114.035 117.817 95.1613 117.817 71.9663C117.817 55.7411 127.298 40.7898 141.98 33.8826C146.683 31.678 152.241 33.6952 154.446 38.3792C156.651 43.0631 154.633 48.6464 149.956 50.851C141.818 54.6794 136.553 62.9731 136.553 71.9663C136.553 84.8253 147.008 95.2862 159.854 95.2862C172.701 95.2862 183.156 84.8253 183.156 71.9663C183.156 62.817 177.766 54.4733 169.435 50.7011C164.726 48.5715 162.634 43.0194 164.757 38.298C166.893 33.589 172.426 31.4844 177.16 33.6203C192.18 40.4151 201.891 55.4663 201.891 71.9663C201.891 95.1613 183.031 114.035 159.854 114.035Z" fill="white"></path><path d="M326.74 400C304.551 400 286.508 381.939 286.508 359.743C286.508 337.541 304.551 319.479 326.74 319.479C348.93 319.479 366.973 337.541 366.973 359.743C366.973 381.939 348.93 400 326.74 400ZM326.74 338.228C314.887 338.228 305.244 347.877 305.244 359.743C305.244 371.603 314.887 381.252 326.74 381.252C338.594 381.252 348.237 371.603 348.237 359.743C348.237 347.877 338.594 338.228 326.74 338.228Z" fill="white"></path><path d="M158.568 337.638C136.384 337.638 118.342 319.577 118.342 297.375C118.342 275.173 136.384 257.111 158.568 257.111C180.757 257.111 198.806 275.173 198.806 297.375C198.806 319.577 180.757 337.638 158.568 337.638ZM158.568 275.86C146.72 275.86 137.078 285.515 137.078 297.375C137.078 309.234 146.72 318.89 158.568 318.89C170.427 318.89 180.07 309.234 180.07 297.375C180.07 285.515 170.427 275.86 158.568 275.86Z" fill="white"></path><path d="M40.2321 393.736C18.0426 393.736 0 375.675 0 353.473C0 331.271 18.0426 313.216 40.2321 313.216C62.4216 313.216 80.4642 331.271 80.4642 353.473C80.4642 375.675 62.4216 393.736 40.2321 393.736ZM40.2321 331.964C28.3786 331.964 18.7358 341.613 18.7358 353.473C18.7358 365.333 28.3786 374.988 40.2321 374.988C52.0857 374.988 61.7284 365.333 61.7284 353.473C61.7284 341.613 52.0857 331.964 40.2321 331.964Z" fill="white"></path><path d="M66.594 346.833C63.1029 346.833 59.7492 344.872 58.1379 341.512C55.9021 336.84 57.8693 331.244 62.5346 329.002L125.325 298.869C129.977 296.633 135.586 298.594 137.821 303.272C140.057 307.937 138.09 313.539 133.425 315.775L70.6347 345.908C69.3294 346.539 67.9492 346.833 66.594 346.833Z" fill="white"></path><path d="M297.45 359.335C296.245 359.335 295.015 359.098 293.828 358.599L185.029 312.814C180.264 310.81 178.015 305.314 180.026 300.542C182.025 295.771 187.521 293.523 192.292 295.534L301.085 341.312C305.856 343.323 308.105 348.818 306.094 353.59C304.589 357.175 301.11 359.335 297.45 359.335Z" fill="white"></path><path d="M158.574 277.297C158.468 277.297 158.362 277.297 158.249 277.297C153.084 277.297 149.031 272.063 149.206 266.892L150.493 228.24C150.674 223.063 154.977 218.841 160.173 219.01C165.338 219.178 169.397 223.425 169.216 228.603L167.93 267.567C167.761 272.632 163.602 277.297 158.574 277.297Z" fill="white"></path></svg>