<svg xmlns="http://www.w3.org/2000/svg" width="400" height="400" viewBox="0 0 400 400" fill="none"><path d="M192.498 0.137177C191.089 0.282074 186.269 0.789185 181.745 1.22385C131.314 6.2225 81.1795 32.4472 47.7319 71.4221C23.2581 99.8202 7.83214 133.579 1.75077 171.757C-0.399964 185.377 -0.622454 213.63 1.37995 226.815C5.01394 250.866 11.7628 271.44 22.8873 292.739C39.0548 323.6 64.4928 350.839 94.7513 369.602C104.393 375.615 122.117 384.091 133.168 388.003C144.218 391.915 161.943 396.334 175.07 398.29C189.013 400.391 217.936 400.608 231.434 398.652C268.812 393.219 301.963 379.454 331.925 356.852C340.973 350.042 357.363 334.032 365.298 324.252C378.129 308.459 388.882 290.276 396.373 271.368C399.636 263.327 400.229 261.008 399.932 258.4C399.265 252.677 394.815 248.62 389.253 248.62C382.727 248.693 379.315 251.663 376.719 259.415C374.865 264.993 368.042 279.699 364.186 286.581C350.243 311.284 328.588 333.815 303.224 349.897C285.647 360.981 262.805 370.254 243.3 374.166C230.321 376.774 226.984 377.136 214.821 377.788C183.08 379.454 153.785 373.659 125.307 360.184C68.8684 333.452 31.0452 281.003 23.703 219.498C22.2198 207.472 22.6648 185.232 24.5188 173.931C34.0117 115.468 69.9067 67.2928 123.601 40.9232C141.548 32.1575 160.682 26.4344 182.486 23.4642C191.163 22.2326 220.606 22.3051 228.467 23.4642C263.027 28.825 289.281 39.4743 315.238 58.7444C324.286 65.4093 340.157 80.1154 338.896 80.6226C338.451 80.7675 330.59 79.6808 321.468 78.2319C312.346 76.783 303.817 75.7688 302.482 75.9861C294.918 77.2177 290.764 86.3456 295.066 92.4309C298.329 97.1398 298.329 97.1398 332.296 102.573C349.872 105.398 365.595 107.717 367.301 107.789C371.602 107.862 374.94 105.761 376.942 101.849C378.054 99.458 379.983 89.6781 383.839 66.5684L389.105 34.5481L387.696 31.3606C385.841 27.2313 382.282 25.058 377.461 25.058C373.456 25.058 369.822 26.7966 367.894 29.6944C367.152 30.7086 365.521 38.4601 363.741 48.7472C362.183 58.2373 360.7 66.7133 360.478 67.5102C360.181 68.8866 358.624 67.6551 349.947 59.1067C332.667 42.2997 315.832 30.4912 294.473 20.3491C266.81 7.09183 239.814 0.716736 209.185 0.137177C201.472 -0.0801392 193.907 -0.00769043 192.498 0.137177Z" fill="white"></path><path d="M198.8 78.372C187.305 83.8778 144.883 104.017 144.661 104.017C144.364 104.017 93.1916 128.358 90.8926 129.662C89.8543 130.17 88.2969 132.053 87.4069 133.792L85.7012 136.907V204.787C85.7012 251.151 85.9237 273.391 86.517 274.768C87.9261 278.463 90.3734 280.201 101.646 285.49C107.802 288.387 120.113 294.255 129.087 298.53C138.06 302.804 148.74 307.875 152.819 309.758C156.898 311.642 168.912 317.365 179.518 322.436C205.252 334.752 206.142 335.114 208.589 335.114C210.592 335.114 218.75 331.492 249.602 316.858C257.537 313.091 278.08 303.383 295.212 295.27C312.344 287.156 327.176 279.911 328.14 279.042C332.071 275.637 331.923 278.028 331.923 204.57V136.255L330.217 133.502C328.289 130.242 328.511 130.314 312.64 122.925C305.891 119.81 293.729 114.087 285.571 110.175C277.413 106.335 267.104 101.409 262.58 99.3083C258.13 97.2075 244.781 90.9048 232.915 85.2542C215.783 77.1404 210.814 75.0396 208.441 75.112C206.513 75.112 203.25 76.1987 198.8 78.372ZM237.81 110.61C253.903 118.144 273.705 127.562 281.788 131.401L296.547 138.428L283.272 144.658L270.071 150.889L259.614 146.035C243.594 138.501 190.345 113.218 186.192 111.044L182.484 109.233L195.463 103.003C202.582 99.5981 208.515 96.8452 208.515 96.7728C208.589 96.7728 221.79 103.003 237.81 110.61ZM174.697 128.793C196.798 139.225 220.53 150.454 233.286 156.612L245.523 162.552L227.13 171.245L208.738 180.011L188.195 170.376C176.922 165.015 158.974 156.539 148.369 151.468C137.764 146.397 127.307 141.471 125.082 140.457C122.783 139.442 121.374 138.428 121.744 138.066C122.115 137.704 130.422 133.719 140.211 129.155C156.824 121.331 158.084 120.897 159.864 121.766C160.903 122.273 167.577 125.461 174.697 128.793ZM310.415 209.858V264.915L297.659 270.928C290.614 274.261 278.154 280.129 269.997 284.041C261.839 287.88 251.085 293.024 246.116 295.342C241.147 297.66 233.063 301.572 228.094 303.963L219.195 308.309V253.18V198.122L238.181 189.067C248.563 184.14 257.24 180.083 257.463 180.083C257.611 180.083 257.76 191.023 257.76 204.425C257.76 225.289 257.908 229.128 258.946 231.229C262.209 237.966 273.037 238.473 277.042 232.026C278.451 229.853 278.525 228.186 278.525 199.788V169.941L294.322 162.407C302.925 158.278 310.119 154.8 310.267 154.8C310.341 154.728 310.415 179.504 310.415 209.858ZM115.515 159.002C119.668 160.958 132.35 166.899 143.548 172.26C154.747 177.548 171.508 185.517 180.778 189.863L197.687 197.832V252.672C197.687 282.882 197.539 307.585 197.242 307.585C197.02 307.585 178.628 298.892 156.304 288.315C133.981 277.738 113.809 268.248 111.51 267.234L107.208 265.35V210.438C107.208 180.156 107.357 155.452 107.505 155.452C107.653 155.452 111.287 157.046 115.515 159.002Z" fill="white"></path></svg>