<svg xmlns="http://www.w3.org/2000/svg" width="454" height="400" viewBox="0 0 454 400" fill="none"><mask id="path-1-outside-1_51_770" maskUnits="userSpaceOnUse" x="1.29419" y="8.54346" width="450" height="386" fill="black"><rect fill="white" x="1.29419" y="8.54346" width="450" height="386"></rect><path d="M145.745 10.9045C93.972 17.2874 53.1918 58.7768 47.9613 110.284L47.3408 116.312H27.0394C7.89043 116.312 6.64929 116.401 4.9649 118.085C3.19185 119.858 3.19185 120.656 3.36915 240.071C3.63511 357.89 3.63511 360.284 5.31951 361.525C6.73795 362.5 12.6777 362.766 38.2096 362.766H69.2379L70.8337 367.11C74.2911 376.862 84.3089 386.525 95.1245 390.426C105.142 393.972 119.149 392.642 128.192 387.323C136.525 382.358 143.795 373.848 146.011 366.224L147.075 362.766H241.224H335.284L336.437 366.135C342.465 383.422 362.589 395.213 380.674 392.021C394.061 389.717 404.965 381.472 410.639 369.504L413.83 362.766H429.965C442.554 362.766 446.543 362.5 447.873 361.525C449.468 360.284 449.557 358.511 449.823 304.61C450 253.546 449.912 248.848 448.493 246.72C444.149 240.071 383.156 162.678 381.472 161.791C380.054 160.904 371.011 160.639 346.543 160.639H313.476V139.982C313.476 121.011 313.298 119.149 311.88 117.819C310.461 116.49 307.536 116.312 289.717 116.312H269.149V112.766C269.149 107.979 266.224 93.174 263.83 86.1704C253.103 54.2555 227.305 27.9257 195.745 16.6669C181.383 11.525 160.195 9.13141 145.745 10.9045ZM183.334 23.4931C212.766 31.2945 236.259 50.5321 249.291 77.7485C251.862 83.0676 255.054 91.4896 256.383 96.3655C258.6 104.433 258.777 106.649 258.866 121.188C258.866 135.639 258.6 137.943 256.561 145.745C251.862 163.032 243.706 177.837 231.738 190.426C192.554 231.915 127.66 232.89 87.3231 192.642C30.4082 135.639 59.2202 39.4506 138.387 22.3406C150.178 19.7697 171.366 20.3016 183.334 23.4931ZM48.2273 134.22C54.2557 182.802 90.2486 221.188 138.83 230.763C147.695 232.536 170.479 232.27 179.61 230.319C203.192 225.355 221.632 215.248 237.944 198.404C255.231 180.497 265.515 159.309 268.529 135.284L269.681 126.507H286.437H303.28L303.546 227.305L303.724 328.192H222.341H140.958L137.5 324.557C130.585 317.465 123.759 313.83 113.83 312.234C102.217 310.373 88.2982 315.071 79.7876 323.759L75.4436 328.192H55.3195H35.1954L34.9294 303.724L34.6635 279.256L32.5358 277.571C30.8514 276.153 28.9897 275.887 22.1635 275.887H13.8301V200.975V126.064H30.4968H47.2521L48.2273 134.22ZM408.156 211.17L439.362 250.975V263.475V275.887H431.029C418.44 275.887 418.529 275.709 418.529 293.174C418.529 310.639 418.44 310.461 431.029 310.461H439.362V319.326V328.192H423.05H406.738L404.522 325.178C401.773 321.631 393.883 316.224 388.653 314.362C373.937 309.043 357.713 312.412 346.366 323.316L341.224 328.192H327.394H313.476V249.734V171.277H345.213H377.039L408.156 211.17ZM24.4684 307.358V328.192H19.1493H13.8301V307.358V286.525H19.1493H24.4684V307.358ZM439.362 293.174V299.823H434.043H428.724V293.174V286.525H434.043H439.362V293.174ZM120.39 324.468C130.94 329.167 138.298 340.248 138.298 351.685C138.387 360.993 136.171 366.401 129.61 373.05C123.05 379.61 117.022 382.27 108.245 382.27C99.4684 382.27 93.3514 379.61 86.9684 373.05C80.4082 366.401 78.1032 360.727 78.1919 351.685C78.1919 338.919 86.8798 327.217 99.2025 323.227C104.522 321.454 115.16 322.075 120.39 324.468ZM387.057 324.734C393.085 327.571 398.848 333.334 401.951 339.717C403.99 343.883 404.344 345.745 404.344 352.128C404.344 361.082 401.951 367.199 396.1 373.139C390.426 378.99 384.398 381.649 375.976 382.092C367.11 382.536 360.727 380.408 354.522 374.734C336.968 359.043 342.908 330.497 365.16 323.227C371.011 321.277 381.206 322.075 387.057 324.734ZM69.3266 340.78C68.972 342.376 68.4401 345.568 68.1741 347.873L67.6422 352.128H40.7805H13.8301V345.036V337.943H41.8443H69.9472L69.3266 340.78ZM335.639 338.83C335.639 339.273 335.195 342.465 334.575 345.922L333.511 352.128H241.135H148.848L148.227 347.429C147.961 344.947 147.429 341.756 147.163 340.337L146.632 337.943H241.135C302.394 337.943 335.639 338.209 335.639 338.83ZM439.362 345.036V352.128H427.039H414.805L414.273 346.986C414.007 344.238 413.476 341.046 413.121 339.894L412.589 337.943H425.976H439.362V345.036Z"></path></mask><path d="M145.745 10.9045C93.972 17.2874 53.1918 58.7768 47.9613 110.284L47.3408 116.312H27.0394C7.89043 116.312 6.64929 116.401 4.9649 118.085C3.19185 119.858 3.19185 120.656 3.36915 240.071C3.63511 357.89 3.63511 360.284 5.31951 361.525C6.73795 362.5 12.6777 362.766 38.2096 362.766H69.2379L70.8337 367.11C74.2911 376.862 84.3089 386.525 95.1245 390.426C105.142 393.972 119.149 392.642 128.192 387.323C136.525 382.358 143.795 373.848 146.011 366.224L147.075 362.766H241.224H335.284L336.437 366.135C342.465 383.422 362.589 395.213 380.674 392.021C394.061 389.717 404.965 381.472 410.639 369.504L413.83 362.766H429.965C442.554 362.766 446.543 362.5 447.873 361.525C449.468 360.284 449.557 358.511 449.823 304.61C450 253.546 449.912 248.848 448.493 246.72C444.149 240.071 383.156 162.678 381.472 161.791C380.054 160.904 371.011 160.639 346.543 160.639H313.476V139.982C313.476 121.011 313.298 119.149 311.88 117.819C310.461 116.49 307.536 116.312 289.717 116.312H269.149V112.766C269.149 107.979 266.224 93.174 263.83 86.1704C253.103 54.2555 227.305 27.9257 195.745 16.6669C181.383 11.525 160.195 9.13141 145.745 10.9045ZM183.334 23.4931C212.766 31.2945 236.259 50.5321 249.291 77.7485C251.862 83.0676 255.054 91.4896 256.383 96.3655C258.6 104.433 258.777 106.649 258.866 121.188C258.866 135.639 258.6 137.943 256.561 145.745C251.862 163.032 243.706 177.837 231.738 190.426C192.554 231.915 127.66 232.89 87.3231 192.642C30.4082 135.639 59.2202 39.4506 138.387 22.3406C150.178 19.7697 171.366 20.3016 183.334 23.4931ZM48.2273 134.22C54.2557 182.802 90.2486 221.188 138.83 230.763C147.695 232.536 170.479 232.27 179.61 230.319C203.192 225.355 221.632 215.248 237.944 198.404C255.231 180.497 265.515 159.309 268.529 135.284L269.681 126.507H286.437H303.28L303.546 227.305L303.724 328.192H222.341H140.958L137.5 324.557C130.585 317.465 123.759 313.83 113.83 312.234C102.217 310.373 88.2982 315.071 79.7876 323.759L75.4436 328.192H55.3195H35.1954L34.9294 303.724L34.6635 279.256L32.5358 277.571C30.8514 276.153 28.9897 275.887 22.1635 275.887H13.8301V200.975V126.064H30.4968H47.2521L48.2273 134.22ZM408.156 211.17L439.362 250.975V263.475V275.887H431.029C418.44 275.887 418.529 275.709 418.529 293.174C418.529 310.639 418.44 310.461 431.029 310.461H439.362V319.326V328.192H423.05H406.738L404.522 325.178C401.773 321.631 393.883 316.224 388.653 314.362C373.937 309.043 357.713 312.412 346.366 323.316L341.224 328.192H327.394H313.476V249.734V171.277H345.213H377.039L408.156 211.17ZM24.4684 307.358V328.192H19.1493H13.8301V307.358V286.525H19.1493H24.4684V307.358ZM439.362 293.174V299.823H434.043H428.724V293.174V286.525H434.043H439.362V293.174ZM120.39 324.468C130.94 329.167 138.298 340.248 138.298 351.685C138.387 360.993 136.171 366.401 129.61 373.05C123.05 379.61 117.022 382.27 108.245 382.27C99.4684 382.27 93.3514 379.61 86.9684 373.05C80.4082 366.401 78.1032 360.727 78.1919 351.685C78.1919 338.919 86.8798 327.217 99.2025 323.227C104.522 321.454 115.16 322.075 120.39 324.468ZM387.057 324.734C393.085 327.571 398.848 333.334 401.951 339.717C403.99 343.883 404.344 345.745 404.344 352.128C404.344 361.082 401.951 367.199 396.1 373.139C390.426 378.99 384.398 381.649 375.976 382.092C367.11 382.536 360.727 380.408 354.522 374.734C336.968 359.043 342.908 330.497 365.16 323.227C371.011 321.277 381.206 322.075 387.057 324.734ZM69.3266 340.78C68.972 342.376 68.4401 345.568 68.1741 347.873L67.6422 352.128H40.7805H13.8301V345.036V337.943H41.8443H69.9472L69.3266 340.78ZM335.639 338.83C335.639 339.273 335.195 342.465 334.575 345.922L333.511 352.128H241.135H148.848L148.227 347.429C147.961 344.947 147.429 341.756 147.163 340.337L146.632 337.943H241.135C302.394 337.943 335.639 338.209 335.639 338.83ZM439.362 345.036V352.128H427.039H414.805L414.273 346.986C414.007 344.238 413.476 341.046 413.121 339.894L412.589 337.943H425.976H439.362V345.036Z" fill="white"></path><path d="M145.745 10.9045C93.972 17.2874 53.1918 58.7768 47.9613 110.284L47.3408 116.312H27.0394C7.89043 116.312 6.64929 116.401 4.9649 118.085C3.19185 119.858 3.19185 120.656 3.36915 240.071C3.63511 357.89 3.63511 360.284 5.31951 361.525C6.73795 362.5 12.6777 362.766 38.2096 362.766H69.2379L70.8337 367.11C74.2911 376.862 84.3089 386.525 95.1245 390.426C105.142 393.972 119.149 392.642 128.192 387.323C136.525 382.358 143.795 373.848 146.011 366.224L147.075 362.766H241.224H335.284L336.437 366.135C342.465 383.422 362.589 395.213 380.674 392.021C394.061 389.717 404.965 381.472 410.639 369.504L413.83 362.766H429.965C442.554 362.766 446.543 362.5 447.873 361.525C449.468 360.284 449.557 358.511 449.823 304.61C450 253.546 449.912 248.848 448.493 246.72C444.149 240.071 383.156 162.678 381.472 161.791C380.054 160.904 371.011 160.639 346.543 160.639H313.476V139.982C313.476 121.011 313.298 119.149 311.88 117.819C310.461 116.49 307.536 116.312 289.717 116.312H269.149V112.766C269.149 107.979 266.224 93.174 263.83 86.1704C253.103 54.2555 227.305 27.9257 195.745 16.6669C181.383 11.525 160.195 9.13141 145.745 10.9045ZM183.334 23.4931C212.766 31.2945 236.259 50.5321 249.291 77.7485C251.862 83.0676 255.054 91.4896 256.383 96.3655C258.6 104.433 258.777 106.649 258.866 121.188C258.866 135.639 258.6 137.943 256.561 145.745C251.862 163.032 243.706 177.837 231.738 190.426C192.554 231.915 127.66 232.89 87.3231 192.642C30.4082 135.639 59.2202 39.4506 138.387 22.3406C150.178 19.7697 171.366 20.3016 183.334 23.4931ZM48.2273 134.22C54.2557 182.802 90.2486 221.188 138.83 230.763C147.695 232.536 170.479 232.27 179.61 230.319C203.192 225.355 221.632 215.248 237.944 198.404C255.231 180.497 265.515 159.309 268.529 135.284L269.681 126.507H286.437H303.28L303.546 227.305L303.724 328.192H222.341H140.958L137.5 324.557C130.585 317.465 123.759 313.83 113.83 312.234C102.217 310.373 88.2982 315.071 79.7876 323.759L75.4436 328.192H55.3195H35.1954L34.9294 303.724L34.6635 279.256L32.5358 277.571C30.8514 276.153 28.9897 275.887 22.1635 275.887H13.8301V200.975V126.064H30.4968H47.2521L48.2273 134.22ZM408.156 211.17L439.362 250.975V263.475V275.887H431.029C418.44 275.887 418.529 275.709 418.529 293.174C418.529 310.639 418.44 310.461 431.029 310.461H439.362V319.326V328.192H423.05H406.738L404.522 325.178C401.773 321.631 393.883 316.224 388.653 314.362C373.937 309.043 357.713 312.412 346.366 323.316L341.224 328.192H327.394H313.476V249.734V171.277H345.213H377.039L408.156 211.17ZM24.4684 307.358V328.192H19.1493H13.8301V307.358V286.525H19.1493H24.4684V307.358ZM439.362 293.174V299.823H434.043H428.724V293.174V286.525H434.043H439.362V293.174ZM120.39 324.468C130.94 329.167 138.298 340.248 138.298 351.685C138.387 360.993 136.171 366.401 129.61 373.05C123.05 379.61 117.022 382.27 108.245 382.27C99.4684 382.27 93.3514 379.61 86.9684 373.05C80.4082 366.401 78.1032 360.727 78.1919 351.685C78.1919 338.919 86.8798 327.217 99.2025 323.227C104.522 321.454 115.16 322.075 120.39 324.468ZM387.057 324.734C393.085 327.571 398.848 333.334 401.951 339.717C403.99 343.883 404.344 345.745 404.344 352.128C404.344 361.082 401.951 367.199 396.1 373.139C390.426 378.99 384.398 381.649 375.976 382.092C367.11 382.536 360.727 380.408 354.522 374.734C336.968 359.043 342.908 330.497 365.16 323.227C371.011 321.277 381.206 322.075 387.057 324.734ZM69.3266 340.78C68.972 342.376 68.4401 345.568 68.1741 347.873L67.6422 352.128H40.7805H13.8301V345.036V337.943H41.8443H69.9472L69.3266 340.78ZM335.639 338.83C335.639 339.273 335.195 342.465 334.575 345.922L333.511 352.128H241.135H148.848L148.227 347.429C147.961 344.947 147.429 341.756 147.163 340.337L146.632 337.943H241.135C302.394 337.943 335.639 338.209 335.639 338.83ZM439.362 345.036V352.128H427.039H414.805L414.273 346.986C414.007 344.238 413.476 341.046 413.121 339.894L412.589 337.943H425.976H439.362V345.036Z" stroke="white" stroke-width="2.13333" mask="url(#path-1-outside-1_51_770)"></path><path d="M72.528 103.615L72.5278 103.616C70.2066 114.865 70.6512 132.679 73.5096 143.487M72.528 103.615L146.378 34.3129C172.789 30.4763 199.725 39.4003 219.608 58.5703L219.608 58.5704C242.623 80.7821 251.541 113.608 243.068 144.821L243.068 144.821C236.109 170.338 215.956 192.898 191.244 202.712C185.245 205.112 180.796 206.567 175.946 207.418C171.101 208.269 165.877 208.512 158.334 208.512C150.251 208.512 144.313 208.113 138.685 206.905C133.056 205.696 127.762 203.683 120.962 200.483M72.528 103.615C76.7204 83.4559 87.604 65.884 103.921 52.7765L72.528 103.615ZM73.5096 143.487C73.5097 143.487 73.5097 143.488 73.5097 143.488L74.0253 143.351L73.5095 143.487C73.5095 143.487 73.5096 143.487 73.5096 143.487ZM73.5096 143.487C80.0215 168.285 97.7691 189.6 120.962 200.483M120.962 200.483C120.962 200.483 120.962 200.483 120.961 200.483L121.188 200.002L120.962 200.483ZM93.0557 154.364C95.3634 149.885 99.5915 145.242 104.768 141.17C109.95 137.094 116.116 133.563 122.335 131.325C123.422 130.921 124.475 130.531 125.426 130.177C126.142 129.912 126.801 129.667 127.374 129.454C128.045 129.205 128.601 128.997 129 128.847C129.062 128.823 129.121 128.801 129.175 128.78C129.023 128.505 128.796 128.127 128.506 127.668C127.903 126.714 127.044 125.437 126.073 124.068C113.763 106.905 117.265 82.382 133.713 69.4393L133.715 69.4381C146.026 59.8231 163.27 58.2089 177.37 65.3939L177.373 65.3952C180.199 66.8536 183.793 69.8729 187.01 73.2353C190.229 76.5987 193.134 80.3709 194.544 83.3728L194.545 83.3757C197.865 90.555 199.216 99.528 198.045 106.647L198.043 106.654C196.877 113.204 193.475 121.001 189.692 125.775L189.688 125.779C188.945 126.698 188.312 127.571 187.878 128.222C187.722 128.456 187.594 128.657 187.497 128.82C187.499 128.821 187.501 128.822 187.503 128.823C187.785 128.932 188.176 129.074 188.651 129.24C189.599 129.57 190.857 129.99 192.187 130.433C198.545 132.448 205.222 136.046 210.89 140.241C216.55 144.43 221.253 149.253 223.611 153.742L223.612 153.744C224.177 154.83 224.779 155.774 225.294 156.415C225.554 156.738 225.776 156.965 225.945 157.095C225.979 157.121 226.007 157.141 226.031 157.156C226.046 157.141 226.063 157.123 226.083 157.102C226.177 156.998 226.293 156.843 226.43 156.631C226.703 156.21 227.025 155.612 227.383 154.867C228.098 153.38 228.931 151.358 229.764 149.106C231.433 144.598 233.083 139.222 233.785 135.452L233.785 135.449C234.706 130.673 234.994 124.202 234.729 117.797C234.464 111.392 233.647 105.1 232.378 100.68C225.334 76.4677 206.313 56.5678 182.634 48.645C163.883 42.4827 142.042 43.9812 124.617 52.606C88.1682 70.7427 72.3199 113.528 87.993 151.214L87.9932 151.214C88.7415 153.019 89.5094 154.642 90.1414 155.808C90.4585 156.393 90.7348 156.85 90.9521 157.156C91.0068 157.233 91.055 157.296 91.0966 157.347M93.0557 154.364C93.0554 154.365 93.0551 154.365 93.0548 154.366L93.5289 154.61L93.0564 154.363C93.0562 154.363 93.0559 154.364 93.0557 154.364ZM93.0557 154.364C92.5762 155.279 92.0802 156.097 91.657 156.679C91.4439 156.972 91.2599 157.19 91.1148 157.33C91.1086 157.336 91.1025 157.342 91.0966 157.347M91.0966 157.347C91.1385 157.399 91.1736 157.437 91.2018 157.465C91.2302 157.493 91.2389 157.497 91.229 157.491C91.2257 157.489 91.1586 157.446 91.0466 157.446C90.9964 157.446 90.9636 157.457 90.9523 157.461M91.0966 157.347C91.0334 157.406 90.9887 157.439 90.9625 157.455C90.9581 157.458 90.9547 157.46 90.9523 157.461M90.9523 157.461C90.9492 157.463 90.9478 157.464 90.948 157.463C90.9481 157.463 90.9496 157.463 90.9523 157.461ZM149.779 139.613L149.786 139.614C152.95 140.383 156.925 140.672 160.839 140.504C164.751 140.337 168.642 139.711 171.636 138.623M149.779 139.613L171.454 138.121M149.779 139.613L149.772 139.611C148.312 139.213 146.786 138.814 145.501 138.482C145.159 138.394 144.834 138.31 144.531 138.232C143.703 138.018 143.045 137.849 142.683 137.75C142.417 137.682 142.003 137.653 141.436 137.682C140.874 137.71 140.196 137.792 139.42 137.925C137.869 138.19 135.959 138.653 133.872 139.264C129.696 140.487 124.849 142.294 120.802 144.274L120.799 144.275C112.012 148.493 104.763 155.242 101.636 161.928C99.9358 165.597 99.2617 167.574 99.6883 169.369C99.9006 170.263 100.398 171.157 101.277 172.221C102.159 173.289 103.399 174.497 105.06 176.026L105.06 176.026L105.065 176.031C115.907 186.256 126.29 192.062 139.942 195.673L139.943 195.673C145.025 197.031 151.824 197.716 158.601 197.727C165.378 197.738 172.086 197.075 176.989 195.762M149.779 139.613L213.476 175.089L218.618 169.947M171.636 138.623C171.636 138.622 171.636 138.622 171.637 138.622L171.454 138.121M171.636 138.623C171.635 138.623 171.635 138.623 171.635 138.623L171.454 138.121M171.636 138.623C173.354 138.006 174.335 137.727 175.656 137.778C177.015 137.831 178.75 138.234 181.957 139.08L181.961 139.081C200.314 143.757 213.831 154.396 217.128 166.541L217.128 166.542L218.021 169.789M171.454 138.121C174.912 136.88 175.71 136.88 182.093 138.564C200.532 143.263 214.274 153.99 217.642 166.401L218.618 169.947M218.021 169.789L218.24 169.57L218.618 169.947M218.021 169.789L218.103 170.089L218.618 169.947M218.021 169.789L213.099 174.712L213.094 174.717C203.234 184.841 190.908 191.974 176.989 195.762M176.989 195.762C176.99 195.762 176.99 195.762 176.99 195.762L177.128 196.277L176.988 195.762C176.989 195.762 176.989 195.762 176.989 195.762ZM170.083 74.6003L170.079 74.5985C156.251 68.2496 140.502 73.7164 133.005 87.4875C131.631 90.0598 130.91 91.5542 130.518 93.2499C130.124 94.9545 130.055 96.8893 130.055 100.355C130.055 103.499 130.144 105.541 130.468 107.307C130.788 109.061 131.344 110.566 132.309 112.628C137.277 123.172 146.844 129.344 158.338 129.431L158.342 129.432C161.264 129.476 163.071 129.407 164.777 129.023C166.482 128.64 168.118 127.934 170.684 126.651L170.687 126.649C176.371 123.851 180.563 120.105 183.262 115.5C185.96 110.894 187.185 105.393 186.879 99.0508L186.879 99.0497C186.747 96.1801 186.527 94.2053 186.097 92.4952C185.668 90.7926 185.026 89.3293 184.019 87.4905L184.017 87.4872C180.971 81.8299 176.095 77.3012 170.083 74.6003ZM170.923 127.128C165.781 129.699 164.185 130.053 158.334 129.965L170.923 127.128Z" fill="white" stroke="white" stroke-width="1.06667"></path><path d="M329.079 186.88C327.837 188.032 327.66 192.199 327.66 219.947C327.66 249.557 327.749 251.773 329.256 253.103C330.763 254.433 335.107 254.61 373.493 254.61C413.564 254.61 416.135 254.522 417.465 253.015C418.352 252.128 418.972 250.532 418.972 249.557C418.972 248.582 408.157 233.954 394.77 216.844L370.568 185.905L350.532 185.639C333.157 185.461 330.32 185.639 329.079 186.88ZM384.132 219.593C394.504 232.713 402.926 243.795 403.015 244.238C403.015 244.593 388.387 244.77 370.479 244.681L337.855 244.415L337.589 219.77L337.412 195.125L351.33 195.39L365.337 195.656L384.132 219.593Z" fill="white"></path><path d="M101.153 336.525C95.6566 339.007 90.958 346.276 90.958 352.393C90.958 357.092 94.7701 363.741 99.114 366.578C106.118 371.099 116.756 369.415 121.809 362.766C123.937 359.929 125.532 355.23 125.532 351.773C125.444 345.922 120.125 338.298 114.628 336.259C111.171 334.929 104.345 335.106 101.153 336.525ZM112.767 347.074C115.869 349.822 116.047 353.9 113.121 357.003C108.954 361.436 101.33 358.244 101.33 352.127C101.33 350 101.951 348.581 103.724 347.074C106.738 344.503 109.752 344.503 112.767 347.074Z" fill="white"></path><path d="M367.11 336.525C361.968 338.741 356.915 346.454 356.915 352.128C356.915 357.89 362.057 365.603 367.288 367.73C371.543 369.504 378.546 369.238 382.625 367.199C390.426 363.209 393.617 352.748 389.717 344.504C386.88 338.652 381.295 335.284 374.734 335.284C371.986 335.372 368.529 335.904 367.11 336.525ZM379.167 347.606C381.915 350.443 382.27 352.039 380.674 355.053C378.369 359.486 373.848 360.461 369.859 357.358C366.756 354.876 366.667 350.266 369.77 347.252C372.695 344.326 375.976 344.415 379.167 347.606Z" fill="white"></path></svg>