<svg xmlns="http://www.w3.org/2000/svg" width="621" height="474" viewBox="0 0 621 474" fill="none"><path d="M179.198 56.9991C144.604 68.8116 135.604 71.9991 134.807 72.9366C133.776 74.0616 133.729 74.5303 133.729 81.0928C133.729 87.7491 133.776 88.1241 134.807 89.3428C136.354 91.0772 138.604 91.0772 140.151 89.3428C141.088 88.2647 141.229 87.5616 141.229 84.3272C141.229 82.3116 141.323 80.6241 141.416 80.6241C141.51 80.6241 159.229 86.7178 180.791 94.2178C202.401 101.671 220.119 107.812 220.26 107.812C220.354 107.812 220.448 117.937 220.448 130.312V152.858L221.619 153.983C223.119 155.53 225.276 155.53 226.776 153.983L227.948 152.858V130.077C227.948 112.312 228.088 107.249 228.557 107.108C240.604 102.89 263.432 95.3428 263.713 95.4834C263.901 95.5772 264.041 106.921 264.041 120.702V145.733L265.26 146.671C266.901 147.983 268.401 147.89 269.994 146.53L271.307 145.405L271.448 118.968L271.588 92.5303L288.791 86.7178C298.26 83.5303 306.276 80.8584 306.604 80.7178C307.073 80.5772 307.166 88.7334 307.073 121.171L306.932 161.858L267.838 175.124C246.323 182.437 228.557 188.437 228.369 188.437C228.135 188.437 227.948 183.233 227.948 176.905C227.948 170.437 227.76 165.046 227.479 164.577C226.776 163.171 224.432 162.421 222.838 163.077C220.635 164.015 220.448 165.046 220.448 177.187C220.448 183.374 220.354 188.437 220.166 188.437C220.026 188.437 204.182 183.046 184.916 176.437C165.651 169.827 147.932 163.78 145.588 162.983L141.229 161.483V152.202V142.968H156.604H172.026L173.01 141.89C174.276 140.53 174.323 138.28 173.151 136.827L172.26 135.702L139.823 135.562L107.432 135.468L106.026 136.827C104.338 138.515 104.244 140.249 105.838 141.796L106.963 142.968H120.369H133.729V154.218C133.729 165.327 133.729 165.515 134.76 166.546C135.51 167.296 149.01 172.124 179.198 182.437C203.057 190.593 222.979 197.39 223.541 197.53C224.151 197.718 240.229 192.468 267.979 183.046C291.885 174.937 311.901 168.046 312.463 167.718C314.713 166.546 314.619 168.374 314.666 119.952C314.666 74.9522 314.666 74.1553 313.729 72.9834C312.979 72.0459 309.041 70.5928 291.276 64.7334C279.463 60.8428 269.432 57.6553 269.01 57.6553C266.619 57.6553 264.979 61.9678 266.666 63.7959C267.088 64.2647 274.26 66.9366 283.166 69.8897C292.682 73.0772 298.588 75.2803 298.213 75.4678C297.838 75.6553 290.807 78.0928 282.557 80.9053L267.557 85.9678L245.76 78.5616C233.76 74.4834 217.073 68.8116 208.635 65.9522C200.151 63.0928 193.26 60.6553 193.26 60.4678C193.26 60.3272 200.01 57.9366 208.213 55.1241L223.213 50.0616L238.119 55.0303C246.323 57.7491 253.729 59.9991 254.573 59.9991C255.463 59.9991 256.448 59.6241 257.01 59.0616C258.229 57.8428 258.276 55.1709 257.057 53.9522C256.307 53.2022 224.198 42.1397 223.026 42.2334C222.744 42.2334 203.057 48.8897 179.198 56.9991ZM218.666 77.2959C239.104 84.2334 255.51 90.0459 255.135 90.1866C251.385 91.5928 223.823 100.78 223.354 100.78C222.416 100.78 149.057 75.2803 149.479 75.1397C157.494 72.2803 180.135 64.7334 180.698 64.7334C181.119 64.6866 198.182 70.3584 218.666 77.2959Z" fill="#824DEB"></path><path d="M177.605 69.8887C175.964 71.1543 175.917 73.9199 177.464 75.3262C178.636 76.4512 231.651 94.2168 233.714 94.2168C235.261 94.2168 237.323 92.3418 237.323 90.9824C237.323 89.623 236.386 87.748 235.495 87.373C233.058 86.3887 180.23 68.9043 179.62 68.9043C179.198 68.9043 178.308 69.3262 177.605 69.8887Z" fill="#824DEB"></path><path d="M212.339 56.3409C210.417 57.8409 210.698 61.6846 212.761 62.5753C217.823 64.5909 266.011 81.1378 266.995 81.1846C268.682 81.2315 270.604 79.4503 270.604 77.7628C270.604 74.8565 270.089 74.6221 242.151 64.919C227.667 59.9034 215.198 55.7784 214.495 55.7784C213.745 55.7784 212.761 56.0596 212.339 56.3409Z" fill="#824DEB"></path><path d="M139.353 99.7012C136.588 100.732 135.65 104.014 137.619 105.842C138.697 106.873 138.931 106.873 155.338 106.873H172.025L173.01 105.795C174.416 104.295 174.369 102.186 172.822 100.732L171.603 99.6074L155.853 99.5137C147.181 99.4668 139.728 99.5605 139.353 99.7012Z" fill="#824DEB"></path><path d="M122.243 118.828C120.837 120.187 120.743 122.296 121.962 123.796L122.853 124.921L152.056 125.062C177.509 125.156 181.353 125.109 182.29 124.453C184.587 122.953 184.868 120.515 182.946 118.593C182.056 117.703 181.259 117.656 152.712 117.656H123.368L122.243 118.828Z" fill="#824DEB"></path><path d="M251.995 165.468C250.683 166.031 249.042 168.609 249.042 170.156C249.042 173.39 252.604 175.922 255.792 174.843C258.276 174.047 259.589 172.312 259.589 169.828C259.589 168.047 259.354 167.531 258.042 166.359C256.448 164.953 254.151 164.578 251.995 165.468Z" fill="#824DEB"></path><path d="M235.165 171.515C233.477 172.546 232.493 174.843 232.915 176.671C233.337 178.312 235.305 180.375 236.852 180.703C239.805 181.359 243.415 178.546 243.415 175.546C243.415 173.953 242.243 171.703 241.118 171.093C239.665 170.343 236.759 170.531 235.165 171.515Z" fill="#824DEB"></path><path d="M5.95117 429.625H3.45117V427.125V285.709C3.45117 217.13 3.5979 181.631 5.32758 161.827C6.19262 151.922 7.46983 145.684 9.45508 141.115C11.4851 136.443 14.1853 133.69 17.3806 130.689C21.0239 127.258 26.3176 124.536 32.0199 122.519C37.7605 120.489 44.1116 119.105 50.0387 118.46C55.9298 117.818 61.5829 117.887 65.8693 118.888C68.0028 119.386 69.9944 120.16 71.5033 121.361C73.0855 122.619 74.1669 124.39 74.1669 126.616C74.1669 128.495 72.9548 129.875 71.8501 130.745C70.679 131.666 69.1315 132.422 67.4194 133.025C63.9702 134.24 59.3508 135.009 54.3418 135.009C45.9903 135.009 40.0449 135.62 35.6194 137.753C31.3916 139.791 28.2522 143.379 25.9421 150.18C23.5939 157.093 22.1859 167.098 21.3852 181.617C20.5866 196.096 20.3995 214.85 20.3995 239.16V324.455H215.047H409.694V242.695C409.694 218.394 409.395 199.426 408.411 184.628C407.425 169.795 405.761 159.346 403.12 151.988C400.511 144.722 397.019 140.65 392.4 138.277C387.638 135.829 381.352 135.009 372.764 135.009C366.898 135.009 361.569 134.25 357.629 133.061C355.675 132.471 353.935 131.737 352.626 130.849C351.447 130.049 349.952 128.66 349.952 126.616C349.952 124.489 351.395 123.022 352.733 122.126C354.128 121.193 355.972 120.48 357.997 119.931C362.084 118.825 367.545 118.224 373.362 118.224C386.891 118.224 400.153 123.95 410.026 132.537C419.879 141.107 426.642 152.792 426.642 164.917C426.642 166.786 426.643 168.294 426.741 169.591C426.838 170.883 427.022 171.796 427.305 172.484C427.758 173.589 428.643 174.594 431.591 175.393C434.673 176.228 439.499 176.688 447.152 176.918C454.751 177.147 464.899 177.147 478.507 177.147C493.5 177.147 508.36 177.739 520.245 178.777C526.184 179.296 531.416 179.93 535.567 180.666C539.531 181.369 542.872 182.22 544.819 183.342C545.924 183.908 547.074 184.896 548.197 186.023C549.394 187.225 550.735 188.767 552.186 190.578C555.089 194.205 558.533 199.042 562.287 204.708C569.801 216.046 578.648 230.837 587.037 246.204C587.038 246.206 587.04 246.209 587.041 246.211L618.098 302.173L618.432 302.774L618.411 303.461L616.619 363.562L614.827 424.252L614.76 426.514L612.504 426.672L587.412 428.44C579.14 429.023 573.012 430.179 569.03 431.736C564.852 433.37 564.048 434.994 564.048 435.963C564.048 440.097 561.716 444.316 558.463 448.121C555.148 451.997 550.578 455.794 545.432 459.127C535.201 465.754 522.18 470.871 511.365 470.871H511.329L511.294 470.87C500.517 470.566 491.536 468.28 483.82 463.415C476.115 458.558 469.882 451.263 464.371 441.298C462.572 438.045 461.482 436.22 458.886 434.78C456.102 433.235 451.381 432.044 441.999 431.236C423.32 429.628 387.78 429.625 316.607 429.625C256.542 429.625 220.777 429.92 200.028 431.094C189.614 431.683 183.183 432.485 179.401 433.514C177.497 434.032 176.513 434.545 176.041 434.929C175.716 435.193 175.723 435.305 175.727 435.36C175.727 435.365 175.727 435.37 175.727 435.374C175.727 439.627 173.425 443.947 170.161 447.851C166.845 451.816 162.272 455.673 157.123 459.046C146.885 465.753 133.862 470.871 123.045 470.871H123.009L122.974 470.87C112.197 470.566 103.216 468.28 95.4998 463.415C87.7948 458.558 81.5617 451.263 76.0507 441.298L76.0416 441.281L76.0328 441.265C74.6004 438.581 73.2552 436.631 71.6989 435.151C70.1711 433.698 68.3427 432.605 65.8173 431.786C60.5852 430.089 52.6337 429.625 38.809 429.625H5.95117ZM426.642 193.932V303.386V412.84H442.064C446.979 412.84 451.205 412.267 454.12 411.398C455.593 410.958 456.588 410.485 457.159 410.076C457.334 409.951 457.436 409.857 457.493 409.797C457.532 409.077 457.738 408.359 457.958 407.745C458.219 407.017 458.583 406.218 459.013 405.379C459.875 403.699 461.088 401.698 462.534 399.521C465.432 395.158 469.373 389.929 473.601 384.866L473.608 384.856L473.616 384.847C499.969 353.905 549.465 362.636 564.472 400.874L564.48 400.894L564.487 400.913C566.526 406.371 568.504 409.199 571.074 410.664C573.685 412.152 577.458 412.553 583.916 411.684L583.946 411.68L583.977 411.677C588.165 411.218 590.717 410.909 592.563 410.065C594.102 409.362 595.269 408.217 596.219 405.407C597.226 402.428 597.886 397.855 598.39 390.621C598.89 383.438 599.225 373.878 599.673 361.043L599.674 361.037C600.571 337.134 600.55 323.873 598.228 312.35C595.914 300.871 591.293 290.992 582.617 273.876C572.49 253.9 557.596 227.46 549.877 215.16C549.875 215.157 549.873 215.155 549.871 215.152L536.283 193.932H480.896H426.642ZM457.557 409.718C457.556 409.718 457.552 409.724 457.545 409.737C457.554 409.725 457.557 409.718 457.557 409.718ZM408.502 375.152L408.502 375.15L410.165 341.24H215.047H20.3995V377.04V412.84H41.7961C51.3122 412.84 57.2417 412.088 61.7756 409.918C66.2174 407.792 69.638 404.145 73.7213 397.529L73.7445 397.491L73.769 397.454C81.3026 386.16 88.09 378.331 95.5839 373.274C103.154 368.165 111.259 366.008 121.175 365.703L121.214 365.702H121.252C133.219 365.702 143.263 367.973 151.75 373.137C160.228 378.294 166.925 386.199 172.447 397.076L181.257 412.825L294.464 411.662L294.477 411.662L406.823 409.93L408.502 375.152ZM149.267 444.306C155.302 437.534 158.325 427.165 158.182 416.922C158.038 406.64 154.721 397.126 148.861 391.868C137.472 381.733 121.818 380.822 108.865 386.337C95.904 391.856 86.1152 403.596 86.1152 418.286C86.1152 433.203 96.7216 445.263 110.253 450.812C123.784 456.361 139.427 455.079 149.267 444.306ZM537.589 444.303C543.623 437.532 546.645 427.164 546.502 416.922C546.358 406.641 543.042 397.128 537.183 391.87C525.793 381.733 510.139 380.822 497.185 386.337C484.224 391.856 474.435 403.596 474.435 418.286C474.435 433.203 485.042 445.263 498.573 450.812C512.105 456.361 527.749 455.078 537.589 444.303Z" fill="#0A0226" stroke="#0A0226" stroke-width="5"></path><path d="M459.339 215.615L459.351 215.581L459.365 215.548C460.33 213.168 462.264 211.433 464.415 210.174C466.585 208.903 469.241 207.958 472.118 207.265C477.88 205.876 485.046 205.374 492.294 205.639C499.557 205.904 507.077 206.946 513.571 208.747C519.937 210.513 525.825 213.144 529.297 216.929L529.312 216.945L529.327 216.962C536.174 224.636 547.983 243.655 557.97 261.59C562.996 270.617 567.626 279.487 571.009 286.684C572.699 290.277 574.098 293.497 575.082 296.132C576.003 298.597 576.751 301.025 576.751 302.798C576.751 306.118 574.024 307.891 571.747 308.802C569.286 309.786 565.799 310.446 561.355 310.896C552.389 311.803 538.464 311.942 518.44 311.353L518.433 311.353L462.873 309.585L459.86 309.489L459.727 306.477L457.935 265.835C457.334 254.568 457.183 243.44 457.41 234.512C457.523 230.049 457.731 226.102 458.03 222.946C458.316 219.92 458.714 217.258 459.339 215.615ZM515.69 293.067L515.706 293.068L515.722 293.069C526.682 293.653 536.574 293.651 543.686 293.289C547.194 293.111 549.946 292.849 551.791 292.546C551.685 292.23 551.564 291.886 551.427 291.513C550.763 289.711 549.784 287.405 548.551 284.722C546.088 279.365 542.688 272.674 538.976 265.828C535.265 258.985 531.265 252.026 527.608 246.134C523.917 240.184 520.692 235.513 518.516 233.097C513.969 228.122 504.541 224.863 495.238 224.439C490.668 224.231 486.438 224.729 483.182 225.863C479.879 227.014 478.042 228.639 477.342 230.367L477.326 230.404L477.311 230.441C477.067 231 476.733 232.388 476.445 234.749C476.171 237 475.971 239.846 475.861 243.101C475.641 249.607 475.787 257.591 476.376 265.433L476.378 265.454L476.379 265.475L477.99 291.427L515.69 293.067ZM553.679 292.112C553.678 292.112 553.672 292.114 553.661 292.12C553.673 292.115 553.679 292.112 553.679 292.112Z" fill="#0A0226" stroke="#0A0226" stroke-width="6.50546"></path></svg>