<svg xmlns="http://www.w3.org/2000/svg" width="610" height="609" viewBox="0 0 610 609" fill="none"><path d="M7.00157 3.47406C5.09921 5.06915 2.84016 8.01404 2.12677 9.85455C1.17559 12.4313 0.818895 82.7389 1.05669 281.637L1.41338 549.984L4.86142 553.665C9.26063 558.45 14.3732 559.923 26.1441 559.923H35.2992V572.315V584.708L39.9362 589.493L44.5732 594.279H90.23C141.713 594.279 141.118 594.402 141.118 585.812C141.118 582.622 140.286 580.414 138.621 578.819C136.243 576.61 133.509 576.487 94.6292 576.119L53.1339 575.751V567.898V559.923L225.892 559.677C390.09 559.309 398.77 559.186 401.861 557.1C403.763 555.873 406.26 553.174 407.449 550.965C409.589 547.407 409.827 544.585 409.827 520.536V494.032L417.318 490.719C421.36 489.001 425.046 487.529 425.64 487.529C426.116 487.529 426.473 507.407 426.473 531.701V575.874L298.777 576.119C175.123 576.487 170.961 576.61 168.584 578.819C166.919 580.414 166.087 582.622 166.087 585.812C166.087 594.892 155.98 594.279 301.987 594.279C445.972 594.279 437.292 594.77 441.573 586.549C443.475 582.99 443.832 577.346 444.307 531.333L444.902 480.167L455.603 491.21C466.066 502.008 466.184 502.253 465.828 507.652C465.709 510.72 466.184 514.401 466.898 515.996C468.681 519.554 546.678 600.659 552.98 605.445C556.666 608.267 558.806 609.003 563.681 609.003H569.625L589.006 589.003C601.014 576.61 608.505 567.898 608.981 565.69C610.883 557.714 608.862 554.033 594.237 538.818C581.753 525.689 579.97 524.339 576.165 524.339C569.625 524.339 565.226 531.211 568.08 536.855C568.912 538.45 574.262 544.708 579.97 550.72L590.551 561.886L576.878 575.874L563.205 589.984L523.969 549.493L484.733 509.002L498.406 494.891L512.079 480.903L526.585 495.75C535.383 504.707 542.517 510.965 544.538 511.456C551.672 513.419 557.26 506.18 554.288 499.063C553.455 497.1 545.37 488.02 536.334 478.817C519.213 461.639 516.359 459.799 508.869 461.271C505.896 461.762 504.113 460.412 493.412 449.246L481.166 436.608L486.516 427.406C492.58 416.853 499 400.534 502.686 386.301C506.253 372.19 507.204 339.061 504.47 323.723C502.092 310.349 496.741 293.539 491.51 282.373L487.586 274.152L492.699 272.189C495.552 271.085 498.644 268.999 499.595 267.526C501.854 264.213 501.854 255.747 499.714 252.434C498.762 251.085 493.055 247.772 487.111 245.195C481.047 242.741 474.032 238.814 471.297 236.728C465.59 232.311 459.645 222.618 456.673 213.415C454.057 205.317 450.847 200.654 447.28 199.673L444.426 198.937L444.07 122.494C443.713 47.2783 443.713 45.9286 441.216 42.493C437.055 36.7261 431.942 34.7628 420.29 34.7628H409.827V24.3333C409.827 12.4313 408.162 7.03241 403.288 3.10602L399.958 0.406555H205.204H10.5685L7.00157 3.47406ZM391.992 62.3705C391.992 104.334 392.111 106.052 394.37 108.383C397.937 112.064 404.239 111.696 407.33 107.647C409.708 104.58 409.827 102.862 409.827 78.6897V53.0453L417.912 53.4134L425.878 53.7814L426.235 133.169C426.354 176.973 426.116 212.679 425.64 212.679C425.046 212.679 421.36 211.207 417.318 209.489L409.827 206.176V174.642C409.827 144.58 409.708 142.862 407.33 139.795C404.239 135.746 397.937 135.378 394.37 139.059C392.111 141.39 391.992 143.108 391.992 171.083V200.654L388.782 199.918C379.984 197.955 367.737 196.728 357.631 196.728C348.714 196.728 345.266 196.237 341.342 194.151C336.467 191.82 334.565 191.697 302.819 192.065L269.29 192.433L267.031 195.378C264.415 198.814 264.058 203.845 266.436 207.28C267.863 209.243 270.003 209.734 281.655 210.225L295.091 210.839L284.866 216.728C279.158 220.041 270.717 225.931 265.961 229.98L257.281 237.219H163.947H70.4929L67.7583 239.919C63.8347 243.6 64.0725 249.735 68.115 253.048C71.2063 255.624 72.1575 255.624 155.98 255.624H240.754L234.572 265.072C231.243 270.348 226.368 279.428 223.752 285.318L218.996 296.116H144.923H70.8496L67.9961 299.183C64.3103 302.864 64.0725 308.631 67.4016 312.067C69.7796 314.521 71.3252 314.521 141.832 314.521C207.939 314.521 213.884 314.644 213.17 316.484C212.695 317.588 211.743 323.723 211.03 329.981L209.603 341.515H139.691C71.3252 341.515 69.7796 341.515 67.4016 343.969C64.4292 347.037 64.3103 352.681 67.2827 356.362L69.5418 359.307L139.573 359.675L209.603 359.92L211.03 370.963C211.862 376.976 212.813 382.743 213.17 383.724C213.884 385.442 206.512 385.687 142.545 385.687C72.2764 385.687 71.2063 385.687 68.115 388.264C64.1914 391.454 63.9536 397.221 67.6394 401.27L70.1363 404.092H144.923C197 404.092 219.591 404.461 219.591 405.442C219.591 406.178 221.969 411.7 224.941 417.712C227.913 423.725 230.291 429.246 230.291 429.86C230.291 430.596 225.298 431.087 218.639 431.087C208.414 431.087 206.631 431.455 204.728 433.541C201.756 436.976 201.994 442.866 205.204 446.179C207.582 448.633 209.128 448.878 226.13 449.246L244.559 449.614L252.05 457.345C256.092 461.516 262.156 467.283 265.366 470.106L271.311 475.259H171.318C71.9197 475.259 71.3252 475.259 68.115 477.836C63.8347 481.271 63.8347 487.652 68.115 491.087C71.3252 493.664 71.6819 493.664 188.677 493.664C292.475 493.664 306.743 493.91 311.261 495.627C332.662 503.48 367.975 505.566 389.377 500.167L391.992 499.554V520.536V541.517H205.323H18.6535V280.165V18.8117H205.323H391.992V62.3705ZM389.614 219.182C401.385 222.372 419.339 229.489 419.339 231.084C419.339 232.434 411.254 239.673 408.044 241.146C406.022 242.127 403.406 241.637 396.51 239.182C333.851 216.974 268.22 251.698 248.602 317.711C245.51 327.895 245.273 330.104 245.273 350.104C245.273 369.982 245.51 372.436 248.483 382.374C255.854 407.037 268.458 426.547 286.768 441.639C336.824 483.112 410.54 473.909 448.707 421.516C465.59 398.326 472.605 374.644 471.297 344.337C470.703 328.141 469.038 319.797 463.806 306.3C460.121 296.975 460.477 294.643 466.779 287.404L471.297 282.005L474.864 289.367C493.888 328.386 493.174 375.871 472.962 414.522C451.56 455.627 410.659 482.13 365.24 484.707C303.295 488.143 248.602 447.16 231.837 384.951C228.746 373.663 228.508 371.086 228.508 350.104C228.508 329.122 228.746 326.423 231.718 315.38C245.986 262.864 287.243 224.826 339.202 216.36C351.567 214.397 376.892 215.747 389.614 219.182ZM447.636 236.238C453.462 245.686 458.337 250.471 467.017 255.87L473.794 260.042L468.444 262.986C460.477 267.281 452.155 275.625 447.161 284.091L442.762 291.453L439.195 285.073C434.677 276.974 425.997 268.017 418.15 263.355L411.967 259.674L418.388 255.993C426.235 251.453 434.201 243.232 438.957 234.888C440.978 231.452 442.524 228.63 442.643 228.63C442.762 228.63 444.902 232.066 447.636 236.238ZM378.914 253.17C384.264 254.52 384.264 254.52 384.264 259.919C384.264 266.668 387.355 270.226 395.797 273.293C415.534 280.533 422.43 287.649 430.158 308.999C433.488 318.079 437.292 321.147 444.426 320.288L450.014 319.552L451.441 324.705C452.155 327.527 453.106 337.343 453.462 346.423C454.295 366.791 452.036 377.957 443.713 394.89C426.354 430.35 390.328 451.7 352.162 449.124C316.968 446.67 284.984 423.97 270.598 391.086C259.659 366.178 259.659 334.03 270.717 308.877C283.439 279.674 311.142 257.956 343.006 251.943C350.259 250.594 372.017 251.33 378.914 253.17ZM481.76 462.989L492.342 474.032L485.327 481.394L478.312 488.756L467.255 477.468L456.197 466.056L462.974 459.062C466.779 455.136 470.108 451.946 470.465 451.946C470.822 451.946 475.934 456.854 481.76 462.989Z" fill="#0A0226"></path><path d="M119.36 79.917C116.506 83.2299 116.744 90.3466 119.835 93.1687C122.213 95.3773 125.424 95.5 205.323 95.5C285.222 95.5 288.432 95.3773 290.81 93.1687C294.021 90.1012 294.258 82.6164 291.167 79.7943C289.146 77.8311 281.417 77.7084 205.085 77.7084C125.424 77.7084 121.143 77.8311 119.36 79.917Z" fill="#0A0226"></path><path d="M119.36 79.917C116.506 83.2299 116.744 90.3466 119.835 93.1687C122.213 95.3773 125.424 95.5 205.323 95.5C285.222 95.5 288.432 95.3773 290.81 93.1687C294.021 90.1012 294.258 82.6164 291.167 79.7943C289.146 77.8311 281.417 77.7084 205.085 77.7084C125.424 77.7084 121.143 77.8311 119.36 79.917Z" stroke="#0A0226"></path><path d="M68.1184 150.231C63.8381 153.667 63.8381 160.047 68.1184 163.483C71.2098 165.937 72.6366 166.06 111.04 166.06H150.752L153.606 162.992C155.27 161.397 156.578 158.575 156.578 156.857C156.578 155.139 155.27 152.317 153.606 150.722L150.752 147.654H111.04C72.6366 147.654 71.2098 147.777 68.1184 150.231Z" fill="#0A0226"></path><path d="M68.1184 150.231C63.8381 153.667 63.8381 160.047 68.1184 163.483C71.2098 165.937 72.6366 166.06 111.04 166.06H150.752L153.606 162.992C155.27 161.397 156.578 158.575 156.578 156.857C156.578 155.139 155.27 152.317 153.606 150.722L150.752 147.654H111.04C72.6366 147.654 71.2098 147.777 68.1184 150.231Z" stroke="#0A0226"></path><path d="M172.259 150.108C170.595 151.826 169.644 154.158 169.644 156.857C169.644 159.556 170.595 161.888 172.259 163.606C174.756 166.06 175.945 166.06 257.152 166.06C338.478 166.06 339.429 166.06 342.521 163.483C346.563 160.17 346.682 154.771 342.64 150.722L339.786 147.654H257.271C175.945 147.654 174.756 147.654 172.259 150.108Z" fill="#0A0226"></path><path d="M172.259 150.108C170.595 151.826 169.644 154.158 169.644 156.857C169.644 159.556 170.595 161.888 172.259 163.606C174.756 166.06 175.945 166.06 257.152 166.06C338.478 166.06 339.429 166.06 342.521 163.483C346.563 160.17 346.682 154.771 342.64 150.722L339.786 147.654H257.271C175.945 147.654 174.756 147.654 172.259 150.108Z" stroke="#0A0226"></path><path d="M71.3308 192.675C65.3859 193.902 63.0079 203.228 67.4071 207.768C69.7851 210.222 71.3308 210.222 157.65 210.222H245.635L248.013 207.031C252.293 201.387 250.628 195.62 244.089 193.044C240.879 191.817 77.3945 191.448 71.3308 192.675Z" fill="#0A0226"></path><path d="M71.3308 192.675C65.3859 193.902 63.0079 203.228 67.4071 207.768C69.7851 210.222 71.3308 210.222 157.65 210.222H245.635L248.013 207.031C252.293 201.387 250.628 195.62 244.089 193.044C240.879 191.817 77.3945 191.448 71.3308 192.675Z" stroke="#0A0226"></path><path d="M67.3942 433.542C64.4217 436.61 64.3028 442.254 67.2753 445.935L69.5343 448.88H126.843H184.152L187.005 445.444C190.453 441.272 190.572 438.573 187.362 434.278L184.984 431.088H127.319C71.3178 431.088 69.6532 431.211 67.3942 433.542Z" fill="#0A0226"></path><path d="M67.3942 433.542C64.4217 436.61 64.3028 442.254 67.2753 445.935L69.5343 448.88H126.843H184.152L187.005 445.444C190.453 441.272 190.572 438.573 187.362 434.278L184.984 431.088H127.319C71.3178 431.088 69.6532 431.211 67.3942 433.542Z" stroke="#0A0226"></path><path d="M355.314 303.49C337.706 304.331 319.633 310.969 300.977 323.464C291.954 329.501 283.776 336.379 275.918 344.548L271.203 349.444L271.756 350.255C272.746 351.697 279.411 358.485 282.845 361.608C303.858 380.53 325.628 391.704 348.388 395.278C352.986 395.999 365.734 395.999 370.39 395.278C392.539 391.854 414.018 380.981 434.536 362.81C438.756 359.085 445.858 351.967 446.993 350.315L447.575 349.474L442.714 344.398C427.231 328.299 407.964 315.444 389.395 308.836C377.288 304.541 366.927 302.92 355.314 303.49ZM365.588 317.186C378.307 319.709 388.551 330.312 390.967 343.497C391.84 348.333 391.433 355.151 389.919 359.956C387.969 366.294 383.4 372.631 377.899 376.746C375.484 378.548 370.681 380.831 367.334 381.762C364.802 382.453 363.929 382.573 359.534 382.573C355.809 382.603 354.092 382.483 352.549 382.092C346.03 380.44 341.315 377.707 336.659 372.871C332.38 368.426 329.761 363.771 328.189 357.764C327.636 355.631 327.549 354.52 327.52 349.865C327.52 345.69 327.636 343.948 328.044 342.266C330.605 331.363 337.881 322.743 347.835 318.778C353.452 316.525 359.564 315.985 365.588 317.186ZM328.218 320.49C328.06 320.724 327.655 321.212 327.25 321.7C327.134 321.839 327.019 321.979 326.909 322.112C323.096 326.647 319.487 334.426 318.236 340.914C315.674 353.889 319.05 367.766 327.141 377.407C327.927 378.368 328.509 379.149 328.393 379.149C327.898 379.149 322.688 376.746 318.934 374.794C308.398 369.297 298.066 361.909 288.462 353.018L284.853 349.654L286.716 347.912C296.815 338.361 308.224 330.131 319.371 324.305C322.63 322.623 327.927 320.1 328.509 320.01C328.568 319.98 328.422 320.22 328.218 320.49ZM397.661 323.404C408.982 329.02 419.926 336.739 430.811 346.771L433.867 349.564L432.79 350.706C428.249 355.571 415.793 365.333 407.993 370.138C402.58 373.472 391.549 379.149 390.472 379.149C390.327 379.149 390.851 378.368 391.636 377.407C393.354 375.394 395.915 371.37 397.224 368.637C398.563 365.903 400.28 360.287 400.862 356.833C401.415 353.379 401.503 346.35 401.008 343.257C399.756 335.177 396.409 327.729 391.112 321.121L390.21 320.01L392.044 320.76C393.062 321.181 395.595 322.382 397.661 323.404Z" fill="#824DEB"></path><path d="M355.314 303.49C337.706 304.331 319.633 310.969 300.977 323.464C291.954 329.501 283.776 336.379 275.918 344.548L271.203 349.444L271.756 350.255C272.746 351.697 279.411 358.485 282.845 361.608C303.858 380.53 325.628 391.704 348.388 395.278C352.986 395.999 365.734 395.999 370.39 395.278C392.539 391.854 414.018 380.981 434.536 362.81C438.756 359.085 445.858 351.967 446.993 350.315L447.575 349.474L442.714 344.398C427.231 328.299 407.964 315.444 389.395 308.836C377.288 304.541 366.927 302.92 355.314 303.49ZM365.588 317.186C378.307 319.709 388.551 330.312 390.967 343.497C391.84 348.333 391.433 355.151 389.919 359.956C387.969 366.294 383.4 372.631 377.899 376.746C375.484 378.548 370.681 380.831 367.334 381.762C364.802 382.453 363.929 382.573 359.534 382.573C355.809 382.603 354.092 382.483 352.549 382.092C346.03 380.44 341.315 377.707 336.659 372.871C332.38 368.426 329.761 363.771 328.189 357.764C327.636 355.631 327.549 354.52 327.52 349.865C327.52 345.69 327.636 343.948 328.044 342.266C330.605 331.363 337.881 322.743 347.835 318.778C353.452 316.525 359.564 315.985 365.588 317.186ZM328.218 320.49C328.06 320.724 327.655 321.212 327.25 321.7C327.134 321.839 327.019 321.979 326.909 322.112C323.096 326.647 319.487 334.426 318.236 340.914C315.674 353.889 319.05 367.766 327.141 377.407C327.927 378.368 328.509 379.149 328.393 379.149C327.898 379.149 322.688 376.746 318.934 374.794C308.398 369.297 298.066 361.909 288.462 353.018L284.853 349.654L286.716 347.912C296.815 338.361 308.224 330.131 319.371 324.305C322.63 322.623 327.927 320.1 328.509 320.01C328.568 319.98 328.422 320.22 328.218 320.49ZM397.661 323.404C408.982 329.02 419.926 336.739 430.811 346.771L433.867 349.564L432.79 350.706C428.249 355.571 415.793 365.333 407.993 370.138C402.58 373.472 391.549 379.149 390.472 379.149C390.327 379.149 390.851 378.368 391.636 377.407C393.354 375.394 395.915 371.37 397.224 368.637C398.563 365.903 400.28 360.287 400.862 356.833C401.415 353.379 401.503 346.35 401.008 343.257C399.756 335.177 396.409 327.729 391.112 321.121L390.21 320.01L392.044 320.76C393.062 321.181 395.595 322.382 397.661 323.404Z" stroke="#824DEB"></path><path d="M356.775 330.794C354.534 331.124 350.081 332.806 350.081 333.347C350.081 333.437 350.576 333.738 351.187 334.068C354.389 335.78 356.222 339.684 355.553 343.409C355.058 346.292 353.603 348.305 351.129 349.656C349.848 350.347 349.295 350.467 347.171 350.467C344.639 350.467 343.795 350.167 341.67 348.605L340.972 348.094L341.117 351.068C341.525 358.967 346.56 365.455 354.243 367.978C355.32 368.338 356.804 368.488 359.54 368.458C362.742 368.458 363.615 368.368 365.215 367.767C369.174 366.326 372.579 363.562 374.849 360.018C376.886 356.774 377.468 354.762 377.643 350.407C377.789 347.223 377.73 346.472 377.148 344.58C375.489 338.904 372.346 335.059 367.398 332.596C363.964 330.914 360.239 330.283 356.775 330.794Z" fill="#824DEB"></path><path d="M356.775 330.794C354.534 331.124 350.081 332.806 350.081 333.347C350.081 333.437 350.576 333.738 351.187 334.068C354.389 335.78 356.222 339.684 355.553 343.409C355.058 346.292 353.603 348.305 351.129 349.656C349.848 350.347 349.295 350.467 347.171 350.467C344.639 350.467 343.795 350.167 341.67 348.605L340.972 348.094L341.117 351.068C341.525 358.967 346.56 365.455 354.243 367.978C355.32 368.338 356.804 368.488 359.54 368.458C362.742 368.458 363.615 368.368 365.215 367.767C369.174 366.326 372.579 363.562 374.849 360.018C376.886 356.774 377.468 354.762 377.643 350.407C377.789 347.223 377.73 346.472 377.148 344.58C375.489 338.904 372.346 335.059 367.398 332.596C363.964 330.914 360.239 330.283 356.775 330.794Z" stroke="#824DEB"></path></svg>