<svg xmlns="http://www.w3.org/2000/svg" width="610" height="609" viewBox="0 0 610 609" fill="none"><g clip-path="url(#clip0_10_438)"><path d="M282.928 15.7235C183.333 26.239 96.7922 85.2223 51.7087 173.214C45.061 186.267 37.5672 204.035 38.4133 204.76C38.655 204.881 42.7645 206.452 47.5992 208.144L56.1808 211.287L58.2355 205.727C79.0247 150.007 125.559 97.309 179.949 67.5756C274.83 15.8444 387.237 24.426 474.503 89.8152C489.007 100.693 512.576 124.021 523.938 138.767C534.453 152.425 544.364 168.258 552.1 183.729C557.417 194.297 559.92 198.396 558.785 200.708C557.855 202.601 554.488 203.297 548.232 205.365C535.662 209.474 532.64 211.891 532.64 217.572C532.64 219.385 533.365 221.682 534.211 222.769C534.937 223.736 547.265 234.01 561.527 245.251C589.327 267.49 591.623 268.699 597.183 263.139C599.48 260.843 600.568 256.008 605.161 228.329C610.237 197.387 610.358 196.058 608.424 192.915C605.161 188.08 601.293 187.718 589.81 191.465C584.13 193.278 579.416 194.607 579.174 194.366C578.932 194.245 574.46 185.542 569.263 175.269C554.034 145.052 538.321 123.296 514.994 99.8472C478.492 63.2244 430.991 36.1501 380.952 23.5799C372.37 21.4043 359.316 18.6243 351.943 17.5365C336.593 15.24 297.432 14.1522 282.928 15.7235ZM587.756 214.792C587.514 216.001 586.547 221.077 585.822 226.033C585.097 230.988 584.251 235.823 583.888 236.669C583.646 237.636 580.02 235.461 573.735 230.384C568.296 226.033 563.945 222.044 563.945 221.561C563.945 220.836 584.492 213.1 587.393 212.858C587.997 212.737 588.118 213.704 587.756 214.792Z" fill="#0A0226"></path><path d="M282.928 15.7235C183.333 26.239 96.7922 85.2223 51.7087 173.214C45.061 186.267 37.5672 204.035 38.4133 204.76C38.655 204.881 42.7645 206.452 47.5992 208.144L56.1808 211.287L58.2355 205.727C79.0247 150.007 125.559 97.309 179.949 67.5756C274.83 15.8444 387.237 24.426 474.503 89.8152C489.007 100.693 512.576 124.021 523.938 138.767C534.453 152.425 544.364 168.258 552.1 183.729C557.417 194.297 559.92 198.396 558.785 200.708C557.855 202.601 554.488 203.297 548.232 205.365C535.662 209.474 532.64 211.891 532.64 217.572C532.64 219.385 533.365 221.682 534.211 222.769C534.937 223.736 547.265 234.01 561.527 245.251C589.327 267.49 591.623 268.699 597.183 263.139C599.48 260.843 600.568 256.008 605.161 228.329C610.237 197.387 610.358 196.058 608.424 192.915C605.161 188.08 601.293 187.718 589.81 191.465C584.13 193.278 579.416 194.607 579.174 194.366C578.932 194.245 574.46 185.542 569.263 175.269C554.034 145.052 538.321 123.296 514.994 99.8472C478.492 63.2244 430.991 36.1501 380.952 23.5799C372.37 21.4043 359.316 18.6243 351.943 17.5365C336.593 15.24 297.432 14.1522 282.928 15.7235ZM587.756 214.792C587.514 216.001 586.547 221.077 585.822 226.033C585.097 230.988 584.251 235.823 583.888 236.669C583.646 237.636 580.02 235.461 573.735 230.384C568.296 226.033 563.945 222.044 563.945 221.561C563.945 220.836 584.492 213.1 587.393 212.858C587.997 212.737 588.118 213.704 587.756 214.792Z" stroke="#0A0226"></path><path d="M251.615 66.3593C225.87 73.1279 206.169 81.4678 203.993 86.7859C203.147 88.7198 202.784 96.0927 202.905 105.158C203.268 123.409 202.543 125.464 191.06 134.166C179.82 142.627 177.523 142.868 159.151 136.825C150.811 134.045 142.834 131.749 141.384 131.749C138.483 131.749 127.967 142.506 117.815 156.164C108.75 168.13 98.7175 184.689 98.7175 187.589C98.7175 190.853 100.289 193.391 109.958 207.17C120.232 221.432 121.199 226.025 116.969 240.288C113.101 253.22 109.958 255.759 90.6194 262.044C81.7961 264.945 73.9397 268.087 72.731 269.538C67.0503 275.823 67.1711 333.476 72.9728 339.882C74.0606 341.091 82.0378 344.354 90.6194 347.134C109.716 353.178 113.101 355.958 116.969 368.77C121.199 382.79 120.232 387.746 109.958 402.008C100.168 415.787 98.7175 418.325 98.7175 421.589C98.7175 424.61 109.837 442.378 120.595 456.399C129.901 468.727 138.725 477.43 141.867 477.43C142.955 477.43 150.811 475.133 159.151 472.353C177.523 466.31 180.061 466.551 190.819 474.891C202.422 483.715 203.268 485.769 203.389 505.229C203.389 514.173 203.872 522.513 204.356 523.601C206.41 528.073 238.803 540.401 259.592 544.632C272.646 547.291 273.371 547.049 283.886 531.578C293.193 517.92 296.457 515.865 308.906 515.261C322.443 514.536 326.794 517.074 336.585 531.578C347.1 546.928 347.825 547.291 360.637 544.632C373.57 542.094 396.535 534.479 407.171 529.523C417.203 524.689 417.808 523.117 417.445 503.416C417.203 485.769 418.049 483.715 429.411 475.012C440.651 466.551 442.948 466.31 461.32 472.353C469.66 475.133 477.516 477.43 478.604 477.43C481.746 477.43 490.57 468.727 499.877 456.399C510.634 442.378 521.754 424.61 521.754 421.589C521.754 418.325 520.303 415.787 510.513 402.008C500.239 387.746 499.272 382.79 503.503 368.77C507.37 355.958 510.634 353.42 529.852 347.134C538.675 344.234 546.531 341.091 547.74 339.641C553.421 333.356 553.3 275.702 547.498 269.296C546.41 268.087 538.433 264.824 529.852 262.044C510.755 256 507.37 253.22 503.503 240.408C499.272 226.388 500.239 221.432 510.513 207.17C520.303 193.391 521.754 190.853 521.754 187.589C521.754 184.568 510.634 166.8 499.877 152.78C490.57 140.451 481.746 131.749 478.604 131.749C477.516 131.749 469.66 134.045 461.32 136.825C442.948 142.868 440.651 142.627 429.411 134.166C417.928 125.464 417.203 123.53 417.203 103.949C417.082 95.0049 416.599 86.6651 416.115 85.5773C414.061 80.9843 381.91 68.7767 360.879 64.5463C347.825 61.8872 347.1 62.129 336.585 77.6C326.794 91.8624 323.894 93.6754 310.236 93.6754C296.698 93.6754 293.556 91.8624 284.491 78.567C276.272 66.3593 272.525 62.8542 268.174 62.8542C266.361 62.975 258.988 64.5463 251.615 66.3593ZM270.712 92.8293C277.36 102.257 282.799 106.971 291.501 110.839C298.511 113.86 322.201 113.86 328.97 110.839C337.793 106.85 343.111 102.257 349.759 92.8293C353.385 87.632 356.769 83.4016 357.374 83.4016C359.549 83.4016 379.976 89.6868 388.678 93.071L397.985 96.6971V109.026C397.985 129.331 402.457 138.155 419.016 150.483C434.125 161.724 443.794 163.174 462.77 156.768L474.615 152.78L478.12 156.406C482.955 161.603 496.371 179.975 498.426 184.447C500.239 188.073 500.118 188.315 493.108 198.347C489.119 203.906 485.01 210.796 483.922 213.697C478.846 226.63 484.164 252.737 494.196 264.098C500.843 271.592 505.557 274.493 519.457 279.086C531.06 282.954 531.181 282.954 531.906 287.426C532.873 293.228 532.873 315.951 531.906 321.752L531.181 326.224L517.644 330.696C505.074 334.927 503.744 335.652 496.855 342.662C489.965 349.431 489.119 351.002 485.614 361.759C481.263 375.417 480.659 387.142 483.922 395.481C485.01 398.382 489.119 405.272 493.108 410.832L500.239 421.105L498.064 425.336C495.163 430.654 482.713 447.817 478.12 452.773L474.615 456.399L462.77 452.41C443.431 445.883 433.883 447.454 417.566 459.783C402.337 471.144 397.985 480.33 397.985 500.153V512.481L388.678 516.107C379.976 519.491 359.549 525.776 357.374 525.776C356.769 525.776 353.385 521.546 349.759 516.349C343.111 506.921 337.672 502.207 328.97 498.34C321.96 495.318 298.27 495.318 291.501 498.34C282.678 502.328 277.36 506.921 270.712 516.349C267.086 521.546 263.702 525.776 263.097 525.776C260.922 525.776 240.616 519.491 231.793 516.107L222.486 512.481V499.548C222.244 479.605 217.893 470.782 202.301 459.179C186.588 447.454 176.798 446.004 157.701 452.41L145.856 456.399L142.351 452.773C137.516 447.575 124.1 429.203 122.045 424.731C120.232 421.105 120.353 420.864 127.363 410.832C131.352 405.272 135.461 398.382 136.549 395.481C139.812 387.142 139.208 375.417 134.857 361.759C131.352 351.002 130.506 349.431 123.616 342.662C116.727 335.652 115.397 334.927 102.827 330.696L89.2899 326.224L88.5647 321.752C87.5977 315.951 87.5977 293.228 88.5647 287.426L89.2899 282.954L102.827 278.482C115.397 274.251 116.727 273.526 123.616 266.516C130.506 259.747 131.352 258.176 134.857 247.419C139.208 233.761 139.812 222.037 136.549 213.697C135.461 210.796 131.352 203.906 127.363 198.347C120.353 188.315 120.232 188.073 122.045 184.447C124.1 179.975 137.516 161.603 142.351 156.406L145.856 152.78L157.701 156.768C176.798 163.174 186.588 161.724 202.301 150C217.893 138.396 222.244 129.573 222.486 109.751V96.8179L228.046 94.4006C235.902 91.1372 258.625 83.8851 262.735 83.5225C263.46 83.5225 267.086 87.632 270.712 92.8293Z" fill="#0A0226"></path><path d="M288.925 141.513C269.466 144.052 246.38 151.787 228.854 161.819C154.279 204.485 125.15 296.224 161.41 374.304C176.639 407.059 204.076 435.221 237.073 451.78C247.226 456.857 266.323 463.383 279.256 466.043C293.881 469.064 325.548 469.185 340.294 466.163C391.3 456.011 434.208 423.497 457.294 377.568C462.37 367.415 468.897 348.318 471.556 335.385C474.578 320.639 474.698 289.093 471.677 274.105C460.92 219.836 424.78 175.235 374.258 153.358C348.392 142.239 317.45 138.008 288.925 141.513ZM341.503 163.028C384.048 172.697 420.187 201.101 439.889 240.262C450.042 260.568 454.514 280.028 454.514 304.564C454.514 323.54 453.063 333.088 447.745 349.526C440.735 371.162 429.131 390.017 412.331 406.817C391.663 427.365 367.489 440.66 339.085 446.704C326.273 449.484 296.54 449.846 284.091 447.308C224.382 435.463 179.178 390.259 167.333 330.55C164.794 318.101 165.157 288.367 167.937 275.555C177.365 231.681 205.889 194.816 245.776 174.752C257.016 169.071 272.971 163.874 284.695 161.94C289.65 161.215 294.606 160.369 295.573 160.127C300.649 158.798 332.075 160.852 341.503 163.028Z" fill="#0A0226"></path><path d="M288.925 141.513C269.466 144.052 246.38 151.787 228.854 161.819C154.279 204.485 125.15 296.224 161.41 374.304C176.639 407.059 204.076 435.221 237.073 451.78C247.226 456.857 266.323 463.383 279.256 466.043C293.881 469.064 325.548 469.185 340.294 466.163C391.3 456.011 434.208 423.497 457.294 377.568C462.37 367.415 468.897 348.318 471.556 335.385C474.578 320.639 474.698 289.093 471.677 274.105C460.92 219.836 424.78 175.235 374.258 153.358C348.392 142.239 317.45 138.008 288.925 141.513ZM341.503 163.028C384.048 172.697 420.187 201.101 439.889 240.262C450.042 260.568 454.514 280.028 454.514 304.564C454.514 323.54 453.063 333.088 447.745 349.526C440.735 371.162 429.131 390.017 412.331 406.817C391.663 427.365 367.489 440.66 339.085 446.704C326.273 449.484 296.54 449.846 284.091 447.308C224.382 435.463 179.178 390.259 167.333 330.55C164.794 318.101 165.157 288.367 167.937 275.555C177.365 231.681 205.889 194.816 245.776 174.752C257.016 169.071 272.971 163.874 284.695 161.94C289.65 161.215 294.606 160.369 295.573 160.127C300.649 158.798 332.075 160.852 341.503 163.028Z" stroke="#0A0226"></path><path d="M33.5837 335.657C31.7707 337.228 27.7821 347.381 20.7718 368.654C15.091 385.575 10.498 400.683 10.498 402.255C10.498 403.705 11.9485 406.485 13.6406 408.177C14.4617 408.998 15.0686 409.613 15.7885 410.034C17.9297 411.288 21.0711 410.832 33.8255 409.023C39.4648 408.183 39.5059 408.296 40.9252 412.2L40.9566 412.287C43.9783 421.231 60.2954 452.173 68.2727 464.139C114.565 533.638 186.36 578.963 270.363 591.896C289.339 594.796 330.676 594.796 350.256 591.896C381.924 587.182 408.756 578.842 437.764 564.459C492.034 537.747 534.337 497.619 563.95 445.163C569.51 435.372 582.201 407.452 582.201 405.156C582.201 404.672 578.212 402.859 573.257 401.167L564.433 398.024L560.445 407.815C535.425 469.82 483.815 523.001 421.447 551.163C347.235 584.523 263.594 583.072 190.711 546.812C132.332 517.925 85.9193 468.974 61.3832 410.715C60.2639 408.039 59.4581 406.538 59.8732 405.55C60.489 404.084 63.7919 403.747 72.7448 402.376C79.7551 401.288 83.0185 400.2 85.0732 398.145C90.6332 392.585 89.4245 390.289 67.1849 362.489C55.9442 348.227 45.6705 335.898 44.7035 335.052C41.8027 332.998 36.6054 333.239 33.5837 335.657ZM52.6808 375.06C57.6363 381.103 59.6911 384.608 58.6033 384.85C56.3068 385.696 35.2759 388.959 35.0341 388.718C34.7924 388.476 40.2314 371.434 42.5279 365.148C42.8905 364.181 43.6157 363.94 44.2201 364.544C44.3209 364.67 44.569 364.975 44.9358 365.426C46.3275 367.136 49.4284 370.946 52.6808 375.06Z" fill="#0A0226"></path><path d="M33.5837 335.657C31.7707 337.228 27.7821 347.381 20.7718 368.654C15.091 385.575 10.498 400.683 10.498 402.255C10.498 403.705 11.9485 406.485 13.6406 408.177C14.4617 408.998 15.0686 409.613 15.7885 410.034C17.9297 411.288 21.0711 410.832 33.8255 409.023C39.4648 408.183 39.5059 408.296 40.9252 412.2L40.9566 412.287C43.9783 421.231 60.2954 452.173 68.2727 464.139C114.565 533.638 186.36 578.963 270.363 591.896C289.339 594.796 330.676 594.796 350.256 591.896C381.924 587.182 408.756 578.842 437.764 564.459C492.034 537.747 534.337 497.619 563.95 445.163C569.51 435.372 582.201 407.452 582.201 405.156C582.201 404.672 578.212 402.859 573.257 401.167L564.433 398.024L560.445 407.815C535.425 469.82 483.815 523.001 421.447 551.163C347.235 584.523 263.594 583.072 190.711 546.812C132.332 517.925 85.9193 468.974 61.3832 410.715C60.2639 408.039 59.4581 406.538 59.8732 405.55C60.489 404.084 63.7919 403.747 72.7448 402.376C79.7551 401.288 83.0185 400.2 85.0732 398.145C90.6332 392.585 89.4245 390.289 67.1849 362.489C55.9442 348.227 45.6705 335.898 44.7035 335.052C41.8027 332.998 36.6054 333.239 33.5837 335.657ZM52.6808 375.06C57.6363 381.103 59.6911 384.608 58.6033 384.85C56.3068 385.696 35.2759 388.959 35.0341 388.718C34.7924 388.476 40.2314 371.434 42.5279 365.148C42.8905 364.181 43.6157 363.94 44.2201 364.544C44.3209 364.67 44.569 364.975 44.9358 365.426C46.3275 367.136 49.4284 370.946 52.6808 375.06Z" stroke="#0A0226"></path><path d="M351.207 337.836L351.207 337.836L351.203 337.84C347.808 341.236 345.902 345.672 345.902 350.432C345.902 355.187 347.767 359.627 351.207 363.027L351.21 363.03C354.645 366.386 359.118 368.25 363.871 368.25C373.623 368.25 381.538 360.245 381.538 350.432C381.538 340.618 373.623 332.614 363.871 332.614C359.121 332.614 354.608 334.475 351.207 337.836ZM363.871 359.044C359.104 359.044 355.107 355.097 355.107 350.432C355.107 345.766 359.104 341.819 363.871 341.819C368.536 341.819 372.333 345.665 372.333 350.432C372.333 355.199 368.536 359.044 363.871 359.044Z" fill="#824DEB" stroke="#824DEB" stroke-width="1.65379"></path><path d="M380.181 286.456L380.179 286.454L368.821 276.228C367.979 275.437 366.869 275.028 365.731 275.028H346.361C343.827 275.028 341.758 277.097 341.758 279.63V310.592C341.758 313.126 343.827 315.195 346.361 315.195H377.096C379.63 315.195 381.699 313.126 381.699 310.592V289.863C381.699 288.57 381.146 287.329 380.181 286.456ZM372.493 305.99H350.964V284.195H363.941L372.493 291.893V305.99Z" fill="#824DEB" stroke="#824DEB" stroke-width="1.65379"></path><path d="M259.022 337.836L259.022 337.836L259.019 337.84C255.623 341.236 253.717 345.672 253.717 350.432C253.717 355.187 255.583 359.627 259.022 363.027L259.026 363.03C262.461 366.386 266.933 368.25 271.686 368.25C281.439 368.25 289.353 360.245 289.353 350.432C289.353 340.618 281.439 332.614 271.686 332.614C266.936 332.614 262.423 334.475 259.022 337.836ZM271.686 359.044C266.919 359.044 262.923 355.097 262.923 350.432C262.923 345.766 266.919 341.819 271.686 341.819C276.352 341.819 280.148 345.665 280.148 350.432C280.148 355.199 276.352 359.044 271.686 359.044Z" fill="#824DEB" stroke="#824DEB" stroke-width="1.65379"></path><path d="M246.488 337.254H239.725V328.038C239.725 325.504 237.656 323.435 235.123 323.435C232.589 323.435 230.52 325.504 230.52 328.038V341.857C230.52 344.391 232.589 346.46 235.123 346.46H246.488C249.021 346.46 251.091 344.391 251.091 341.857C251.091 339.324 249.021 337.254 246.488 337.254Z" fill="#824DEB" stroke="#824DEB" stroke-width="1.65379"></path><path d="M266.458 317.503C266.458 314.97 264.389 312.901 261.855 312.901H216.054C213.521 312.901 211.451 314.97 211.451 317.503C211.451 320.037 213.521 322.106 216.054 322.106H261.855C264.383 322.106 266.458 320.08 266.458 317.503Z" fill="#824DEB" stroke="#824DEB" stroke-width="1.65379"></path><path d="M269.506 304.961H269.51C272.036 304.961 274.105 302.941 274.151 300.411L274.151 300.411C274.197 297.832 272.123 295.757 269.588 295.756C269.588 295.756 269.587 295.756 269.586 295.756L223.79 295.491V295.491H223.785H223.785H223.784H223.784H223.784H223.784H223.784H223.783H223.783H223.783H223.783H223.783H223.782H223.782H223.782H223.782H223.781H223.781H223.781H223.781H223.781H223.78H223.78H223.78H223.78H223.78H223.779H223.779H223.779H223.779H223.779H223.778H223.778H223.778H223.778H223.778H223.778H223.777H223.777H223.777H223.777H223.777H223.776H223.776H223.776H223.776H223.776H223.775H223.775H223.775H223.775H223.775H223.775H223.774H223.774H223.774H223.774H223.774H223.773H223.773H223.773H223.773H223.773H223.773H223.772H223.772H223.772H223.772H223.772H223.772H223.771H223.771H223.771H223.771H223.771H223.771H223.77H223.77H223.77H223.77H223.77H223.77H223.77H223.769H223.769H223.769H223.769H223.769H223.769H223.768H223.768H223.768H223.768H223.768H223.768H223.768H223.767H223.767H223.767H223.767H223.767H223.767H223.767H223.766H223.766H223.766H223.766H223.766H223.766H223.766H223.765H223.765H223.765H223.765H223.765H223.765H223.765H223.765H223.764H223.764H223.764H223.764H223.764H223.764H223.764H223.763H223.763H223.763H223.763H223.763H223.763H223.763H223.763H223.762H223.762H223.762H223.762H223.762H223.762H223.762H223.762H223.762H223.761H223.761H223.761H223.761H223.761H223.761H223.761H223.761H223.761H223.76H223.76H223.76H223.76H223.76H223.76H223.76H223.76H223.76H223.759H223.759H223.759H223.759H223.759H223.759H223.759H223.759H223.759H223.759H223.758H223.758H223.758H223.758H223.758H223.758H223.758H223.758H223.758H223.758H223.757H223.757H223.757H223.757H223.757H223.757H223.757H223.757H223.757H223.757H223.757H223.756H223.756H223.756H223.756H223.756H223.756H223.756H223.756H223.756H223.756H223.756H223.756H223.755H223.755H223.755H223.755H223.755H223.755H223.755H223.755H223.755H223.755H223.755H223.755H223.755H223.754H223.754H223.754H223.754H223.754H223.754H223.754H223.754H223.754H223.754H223.754H223.754H223.754H223.754H223.753H223.753H223.753H223.753H223.753H223.753H223.753H223.753H223.753H223.753H223.753H223.753H223.753H223.753H223.753H223.753H223.752H223.752H223.752H223.752H223.752H223.752H223.752H223.752H223.752H223.752H223.752H223.752H223.752H223.752H223.752H223.752H223.752H223.752H223.751H223.751H223.751H223.751H223.751H223.751H223.751H223.751H223.751H223.751H223.751H223.751H223.751H223.751H223.751H223.751H223.751H223.751H223.751H223.751H223.75H223.75H223.75H223.75H223.75H223.75H223.75H223.75H223.75H223.75H223.75H223.75H223.75H223.75H223.75H223.75H223.75H223.75H223.75H223.75H223.75H223.75H223.75H223.75H223.75H223.75H223.749H223.749H223.749H223.749H223.749H223.749H223.749H223.749H223.749H223.749H223.749H223.749H223.749H223.749H223.749H223.749H223.749H223.749H223.749H223.749H223.749H223.749H223.749H223.749H223.749H223.749H223.749H223.749H223.749H223.749H223.749H223.749H223.749H223.749H223.748H223.748H223.748H223.748H223.748H223.748H223.748H223.748H223.748H223.748H223.748H223.748H223.748H223.748H223.748H223.748H223.748H223.748H223.748H223.748H223.748H223.748H223.748H223.748H223.748H223.748H223.748H223.748H223.748H223.748H223.748H223.748H223.748H223.748H223.748H223.748H223.748H223.748H223.748H223.748H223.748H223.748H223.748H223.748H223.748H223.748H223.748H223.748H223.748H223.748H223.748H223.748H223.748H223.748H223.748H223.748H223.748H223.748H223.748H223.748H223.748H223.748H223.747H223.747H223.747H223.747H223.747H223.747H223.747H223.747H223.747H223.747H223.747H223.747H223.747H223.747H223.747H223.747H223.747H223.747H223.747H223.747H223.747H223.747H223.747H223.747H223.747H223.747H223.747H223.747H223.747H223.747H223.747H223.747H223.747H223.747H223.747H223.747H223.747H223.747H223.747H223.747H223.747H223.747H223.747H223.747H223.747H223.747H223.747H223.747H223.747H223.747H223.747H223.747H223.747H223.747H223.747H223.747H223.747H223.747H223.747H223.747H223.747H223.747H223.747H223.747H223.747H223.747H223.747H223.747H223.747H223.747H223.747H223.747C221.227 295.491 219.148 297.508 219.144 300.049C219.102 302.625 221.174 304.696 223.707 304.697C223.708 304.697 223.709 304.697 223.709 304.697L269.506 304.961Z" fill="#824DEB" stroke="#824DEB" stroke-width="1.65379"></path><path d="M231.421 287.553H277.222C279.756 287.553 281.825 285.484 281.825 282.951C281.825 280.417 279.756 278.348 277.222 278.348H231.421C228.888 278.348 226.819 280.417 226.819 282.951C226.819 285.484 228.888 287.553 231.421 287.553Z" fill="#824DEB" stroke="#824DEB" stroke-width="1.65379"></path><path d="M398.537 284.567L398.537 284.582L398.235 341.82C398.235 341.82 398.235 341.821 398.235 341.821C398.234 344.365 396.154 346.385 393.632 346.385H385.967C383.434 346.385 381.365 344.316 381.365 341.782C381.365 339.249 383.434 337.179 385.967 337.179H389.072L389.33 286.702L365.242 266.752H335.934V337.255H342.696C345.23 337.255 347.299 339.324 347.299 341.858C347.299 344.391 345.23 346.46 342.696 346.46H296.593C294.06 346.46 291.991 344.391 291.991 341.858C291.991 339.324 294.06 337.255 296.593 337.255H326.728V249.383H239.725V272.42C239.725 274.953 237.656 277.023 235.123 277.023C232.589 277.023 230.52 274.953 230.52 272.42V244.781C230.52 242.247 232.589 240.178 235.123 240.178H331.293C333.827 240.178 335.896 242.247 335.896 244.781V257.547H366.862C367.959 257.547 368.977 257.915 369.806 258.606C369.807 258.606 369.807 258.607 369.808 258.607L396.84 280.995L398.537 284.567ZM398.537 284.567L398.537 284.551M398.537 284.567L398.537 284.551M398.537 284.551C398.492 283.206 397.909 281.879 396.841 280.996L398.537 284.551Z" fill="#824DEB" stroke="#824DEB" stroke-width="1.65379"></path></g><defs><clipPath id="clip0_10_438"><rect width="608.596" height="608.596" fill="white" transform="translate(0.986328 0.297852)"></rect></clipPath></defs></svg>