
<svg xmlns="http://www.w3.org/2000/svg" width="610" height="549" viewBox="0 0 610 549" fill="none"><path d="M334.631 9.00452C313.459 25.6395 313.837 22.2369 313.837 274.787C313.837 527.337 313.459 523.934 334.631 540.569C344.839 548.509 347.864 548.887 460.15 548.887C587.937 548.887 591.34 548.131 603.06 523.934C611.756 505.787 611.756 43.7868 603.06 25.6395C591.34 1.44312 587.937 0.687012 460.15 0.687012C347.864 0.687012 344.839 1.06506 334.631 9.00452ZM501.359 27.5299C505.896 35.0912 493.798 38.4939 461.284 38.4939C428.77 38.4939 416.672 35.0912 421.209 27.5299C423.099 24.8834 437.844 23.3711 461.284 23.3711C484.724 23.3711 499.469 24.8834 501.359 27.5299ZM582.266 274.787V488.396H463.175H344.083V274.787V61.178H463.175H582.266V274.787Z" fill="#0A0226"></path><path d="M427.267 172.141C393.24 187.263 376.984 212.594 376.605 249.267C376.605 278.378 383.411 291.61 427.267 345.296L461.671 387.262L487.002 356.26C543.712 286.695 550.517 274.219 546.736 242.839C540.309 183.105 480.574 147.944 427.267 172.141ZM488.136 224.314C505.905 242.083 501.746 270.06 479.44 282.915C443.524 304.465 404.961 254.182 434.45 224.314C449.951 208.813 472.635 208.813 488.136 224.314Z" fill="#824DEB"></path><g clip-path="url(#clip0_20_1511)"><path d="M55.7752 82.8967C53.3221 84.205 51.6049 85.9222 50.2965 88.3753L48.4158 91.8915V230.903C48.4158 385.614 47.9252 373.103 53.9763 377.683C56.7565 379.809 57.3289 379.89 68.1227 380.136L79.4072 380.463L79.6525 390.357L79.8978 400.333L210.569 400.579L341.158 400.742V390.603V380.463L352.442 380.136C362.663 379.89 363.89 379.727 366.343 378.01C367.815 376.947 369.696 374.657 370.595 372.94C372.231 369.751 372.231 367.625 372.231 230.821V91.8915L370.35 88.3753C369.042 85.9222 367.324 84.205 364.871 82.8967L361.355 81.0159H210.323H59.2914L55.7752 82.8967ZM361.437 230.494L361.6 368.851L359.474 369.669C358.329 370.16 353.75 370.487 349.253 370.487H341.158V289.124C341.158 220.6 340.994 207.271 340.013 204.9C337.56 199.176 347.29 199.584 210.323 199.584C73.3561 199.584 83.0869 199.176 80.6337 204.9C79.6525 207.271 79.4889 220.6 79.4889 289.124V370.487H71.3936C66.8961 370.487 62.3169 370.16 61.1721 369.669L59.0461 368.851V230.821C59.0461 154.856 59.2914 92.4639 59.6185 92.2186C59.8638 91.8915 127.898 91.728 210.65 91.8098L361.191 92.0551L361.437 230.494ZM313.682 220.354C319.325 222.726 319.079 220.845 319.079 265.901C319.079 305.56 319.079 306.542 317.444 308.586C316.463 309.812 314.336 311.121 312.701 311.611C308.531 312.756 110.48 312.756 106.31 311.611C104.675 311.121 102.548 309.812 101.567 308.586C99.9318 306.542 99.9318 305.56 99.9318 265.901C99.9318 221.009 99.7683 222.726 105.165 220.354C109.008 218.719 309.676 218.637 313.682 220.354ZM155.291 361.492C158.398 363.373 159.625 366.971 159.625 374.575C159.625 381.526 158.398 385.533 155.782 387.659C153.737 389.212 152.593 389.294 130.105 389.294H106.637L104.102 386.759L101.567 384.224V374.739C101.567 364.599 102.14 362.964 106.065 360.838C107.128 360.184 115.387 359.938 130.187 359.856C151.039 359.856 152.838 359.938 155.291 361.492ZM313.846 362.637L316.626 365.417V374.166C316.626 383.161 316.054 385.451 313.028 387.822C311.474 389.131 308.858 389.294 288.006 389.294C267.727 389.294 264.374 389.131 262.739 387.986C259.795 385.942 258.568 381.853 258.568 374.575C258.568 367.298 259.795 363.209 262.739 361.165C264.374 360.02 267.727 359.856 287.843 359.856H311.066L313.846 362.637Z" fill="#0A0226"></path><path d="M68.0453 410.478C67.5546 411.459 67.2275 418.492 67.2275 427.65C67.2275 442.778 67.3093 443.187 69.0265 444.413C70.6619 445.558 85.4626 445.722 210.328 445.722C335.193 445.722 349.993 445.558 351.629 444.413C353.346 443.187 353.428 442.778 353.428 427.65C353.428 418.492 353.1 411.459 352.61 410.478C351.71 408.925 349.257 408.925 210.328 408.925C71.3979 408.925 68.9447 408.925 68.0453 410.478ZM97.4012 425.115C108.44 429.94 117.517 434.355 117.681 434.846C117.844 435.337 117.435 436.318 116.699 437.054C115.554 438.199 112.692 438.362 95.0298 438.362H74.587L73.2786 436.318C72.2156 434.764 72.0521 432.638 72.2974 426.097C72.5427 417.674 73.1151 416.366 76.2224 416.284C76.8766 416.284 86.4438 420.291 97.4012 425.115ZM343.451 417.265C345.005 418.819 344.76 435.418 343.124 437.054C342.061 438.199 338.954 438.362 322.027 438.362C301.993 438.362 299.949 438.117 299.295 435.255C299.05 434.11 337.809 416.448 340.835 416.366C341.734 416.284 342.879 416.693 343.451 417.265Z" fill="#0A0226"></path><path d="M88.4893 473.033C88.4893 494.375 88.571 495.438 90.2065 497.564L91.8419 499.69H109.341H126.84L128.475 497.564C130.111 495.438 130.193 494.375 130.193 473.033V450.628H109.341H88.4893V473.033Z" fill="#0A0226"></path><path d="M292.081 473.115V495.684L294.125 497.646C296.088 499.69 296.17 499.69 313.178 499.69C329.941 499.69 330.268 499.69 331.986 497.81C333.784 495.929 333.784 495.357 333.784 473.278V450.628H312.933H292.081V473.115Z" fill="#0A0226"></path><path d="M167.676 234.466C154.169 236.724 146.985 251.298 153.43 263.326C154.867 265.995 158.48 269.607 161.148 271.044C165.377 273.343 171.083 274.041 175.558 272.851C183.111 270.839 188.859 264.476 190.09 256.758C191.035 250.969 188.818 244.237 184.63 240.008C181.962 237.34 177.323 235 173.628 234.425C170.631 233.974 170.549 233.974 167.676 234.466Z" fill="#824DEB"></path><path d="M154.334 277.531C144.563 282.58 137.502 291.571 134.341 302.984C132.617 309.265 133.315 311.728 137.092 312.467C139.514 312.919 201.996 312.919 204.418 312.467C208.195 311.728 208.893 309.265 207.169 302.984C203.885 291.119 196.331 281.8 186.068 276.956L183.522 275.766L181.059 276.874C174.491 279.789 166.937 279.83 160.615 276.915C159.342 276.34 158.152 275.889 157.864 275.889C157.618 275.93 156.017 276.628 154.334 277.531Z" fill="#824DEB"></path></g><defs><clipPath id="clip0_20_1511"><rect width="300.565" height="419.656" fill="white" transform="translate(0.985352 81.0234)"></rect></clipPath></defs></svg>