<svg xmlns="http://www.w3.org/2000/svg" width="226" height="240" viewBox="0 0 226 240" fill="none"><path d="M5.96862 0.423065C5.08566 0.717392 3.79065 1.42375 3.14314 2.01239C0.258803 4.60242 0.317667 2.30672 0.317667 74.8861C0.317667 149.761 0.141075 145.817 3.96724 148.172C5.85089 149.29 6.85158 149.349 31.1036 149.349H56.2385V145.817V142.285L39.6389 142.168L22.9803 141.991L22.8037 78.2413L22.686 14.5504H19.1542H15.6223V78.4179V142.285H11.7962H7.96999V74.8861V7.48676H105.39H202.81V71.0599V134.633H206.342H209.874V71.0599V7.48676H213.406H216.937V74.8861V142.285H204.282H191.626V145.817V149.349H205.694C219.292 149.349 219.763 149.29 221.705 147.995C222.824 147.23 224.001 145.758 224.413 144.64C224.943 143.11 225.119 125.686 225.119 74.5918C225.178 10.9597 225.119 6.48607 224.119 4.60242C223.589 3.48399 222.353 2.01239 221.47 1.36488L219.822 0.128738L113.749 0.0110168C55.4144 -0.0478516 6.91044 0.128738 5.96862 0.423065Z" fill="black"></path><path d="M104.625 15.1391C78.5484 18.8475 58.1225 38.567 53.59 64.526C53.1191 67.2338 52.707 70.589 52.707 72.0018V74.5918H56.18H59.7119L60.065 71.1777C61.4778 57.2269 66.6578 46.4548 76.4292 37.0954C84.0227 29.7963 93.0878 25.146 103.095 23.3801C108.922 22.3205 120.636 22.9092 125.934 24.4985C140.944 28.9722 152.54 38.8025 159.251 52.871C161.664 57.9921 163.96 65.7622 163.96 68.9997C163.96 70.0593 164.137 71.7663 164.313 72.767L164.725 74.5918H168.846H172.966L172.554 69.5884C170.494 44.2179 151.599 22.3205 126.581 16.2575C121.166 14.9625 109.982 14.3739 104.625 15.1391Z" fill="#824DEB"></path><path d="M104.978 30.4433C86.6125 33.7985 71.8376 48.5734 68.6001 66.7624C67.6582 72.0013 68.1292 82.4202 69.483 86.9528C70.7192 91.0144 74.4276 98.7256 75.1928 98.7256C75.6638 98.7256 78.6658 96.7242 80.5495 95.1349C80.8438 94.9583 80.1963 93.0746 79.1367 91.0144C75.4283 83.7153 74.251 74.7679 75.8992 66.939C78.2538 55.8137 86.2004 45.4536 96.325 40.509C106.979 35.2113 118.164 35.2113 129.053 40.4502C139.237 45.3948 147.242 55.696 149.597 66.939C151.245 74.7679 150.068 83.7153 146.359 91.0144C145.3 93.0746 144.652 94.9583 144.947 95.1349C146.948 96.7831 149.832 98.7256 150.362 98.7256C151.363 98.7256 155.542 89.3073 156.543 84.7748C157.72 79.4182 157.72 70.6474 156.602 65.0553C156.072 62.5831 154.424 58.1094 152.717 54.5775C150.068 49.2209 149.008 47.8082 144.299 43.0991C138.472 37.2715 133.115 34.034 125.404 31.6206C120.812 30.2078 109.746 29.5603 104.978 30.4433Z" fill="#824DEB"></path><path d="M104.92 45.8075C98.739 47.2791 91.5576 52.2237 87.8492 57.6392C79.6082 69.5886 80.9621 85.2464 91.2044 95.5476C93.2058 97.4902 95.3838 99.5504 96.149 100.021L97.444 100.904L97.3263 119.093L97.1497 137.282L93.9711 130.807C90.2038 123.155 88.2024 120.388 84.906 118.505C81.3741 116.444 78.6664 116.091 74.8991 117.21C66.8936 119.564 64.0093 126.157 67.9531 133.103C69.9545 136.635 73.5452 147.878 78.5487 166.714C80.55 174.131 82.4926 180.783 82.8457 181.43C83.1989 182.078 88.3201 189.141 94.2654 197.088C104.508 210.803 105.096 211.686 105.096 214.159C105.096 216.749 105.037 216.808 102.271 217.985C98.0327 219.81 97.444 221.458 97.444 231.7V240H101.27H105.096V232.348V224.695H140.415H175.733V232.348V240H179.618H183.503L183.268 231.229C183.091 221.164 182.62 219.986 178.147 217.926L175.615 216.749L175.91 211.157C176.086 208.096 176.793 203.563 177.44 201.15C182.032 185.08 183.032 175.838 183.091 150.527V130.219L181.266 127.04C179.088 123.214 175.851 120.683 172.084 119.976L169.258 119.505V123.508C169.258 127.216 169.376 127.57 170.435 127.57C171.083 127.57 172.613 128.453 173.85 129.571L176.028 131.572L176.204 149.467C176.44 173.248 175.557 181.666 170.906 197.912C169.611 202.562 169.023 206.094 168.787 210.391L168.552 216.454H140.65H112.749V212.098V207.743L104.684 196.912C88.6144 175.544 91.2044 180.488 84.8471 158.414C79.1962 138.695 77.0771 132.338 75.0168 128.865L73.8984 126.922L75.6055 125.156C78.0778 122.743 80.55 122.802 83.0812 125.509C84.1408 126.628 86.7896 131.337 89.0265 135.928C98.0915 155 98.739 156.119 100.682 156.295C101.682 156.413 102.977 156.06 103.625 155.589C104.802 154.765 104.802 153.882 105.096 113.325C105.273 90.5442 105.626 71.4722 105.862 70.9425C106.156 70.3538 107.333 69.3531 108.452 68.6468C111.395 66.822 114.75 67.3518 117.281 70.1184L119.224 72.2375V103.435V134.633H123.05H126.876V117.622V100.61L128.819 99.3738C133.587 96.4306 138.531 89.6612 140.415 83.4805C141.886 78.8302 142.004 70.8247 140.65 66.2922C137.825 56.6385 129.466 48.633 119.577 45.9841C116.222 45.1012 108.393 44.9834 104.92 45.8075ZM121.284 54.2251C127.641 57.1094 131.821 61.6419 133.94 67.8815C136.235 74.4743 134.882 82.6564 130.526 88.4251L128.348 91.3683L128.053 81.0671C127.818 71.8254 127.641 70.4716 126.405 67.9993C121.814 58.6399 108.275 56.7562 101.506 64.4674C98.2093 68.2347 97.7972 69.8241 97.444 81.0671L97.1497 91.3683L94.9129 88.4251C90.1449 82.0089 89.0853 72.5907 92.4406 65.527C95.2661 59.5817 101.506 54.4605 107.863 52.8123C111.454 51.9294 117.693 52.5769 121.284 54.2251Z" fill="#824DEB"></path><path d="M130.996 108.086C130.996 111.441 131.055 111.618 132.703 111.971C133.586 112.147 135.117 113.148 136.058 114.09L137.765 115.856L138.06 126.863L138.354 137.871L142.357 138.048L146.301 138.224V128.276C146.301 117.21 145.712 114.031 142.828 110.087C140.885 107.379 135.764 104.613 132.821 104.613H130.996V108.086Z" fill="#824DEB"></path><path d="M149.832 116.091C149.832 119.152 150.009 119.917 150.715 119.917C152.422 119.917 155.13 121.683 156.013 123.449C156.66 124.744 156.896 127.216 156.896 133.75V142.286H161.075H165.254L165.019 132.985C164.842 124.803 164.666 123.449 163.489 120.977C161.664 117.268 158.25 114.325 154.482 113.207C149.773 111.794 149.832 111.735 149.832 116.091Z" fill="#824DEB"></path></svg>