<svg xmlns="http://www.w3.org/2000/svg" width="646" height="656" viewBox="0 0 646 656" fill="none"><path d="M156.142 2.59933C144.275 5.39933 133.875 14.066 128.275 25.7993L124.542 33.7993V167.799C124.542 314.866 124.009 306.599 132.409 308.466C136.809 309.399 143.742 306.466 145.075 303.133C145.475 301.933 145.875 242.333 145.875 170.733C145.875 42.3327 145.875 40.5993 148.542 34.9993C153.075 25.7993 156.009 24.5993 175.609 23.7993C191.609 23.1327 195.342 23 195.342 19.9327C195.342 10.5 198.542 6.19933 192.409 3.13266C188.142 0.865993 164.809 0.599335 156.142 2.59933Z" fill="black"></path><path d="M171 1.5351C171 7.5 171 22.5 171 22.5C164.5 22.5 171 23 552.275 23.8018C565.208 23.8018 567.341 24.2018 571.208 26.7351C573.608 28.4684 576.675 31.9351 578.008 34.4684C580.408 38.8684 580.541 48.8684 580.541 307.135C580.541 559.668 580.408 575.402 578.141 579.802C576.941 582.335 573.875 585.802 571.341 587.402L566.808 590.468H461.608H356.275L352.408 594.335C347.341 599.402 347.341 604.202 352.408 609.268L356.408 613.135L463.474 612.868L570.541 612.468L578.008 609.002C587.341 604.602 594.541 597.268 598.941 587.802C601.874 581.535 602.408 578.335 602.674 565.802C602.808 557.668 602.941 442.068 603.074 308.602L603.208 66.0685L607.474 67.0018C613.874 68.2018 620.274 73.8018 621.874 79.5351C622.941 83.0018 623.208 159.002 622.941 336.468L622.541 588.468L618.275 597.535C610.275 614.335 599.741 624.202 583.608 630.068L574.808 633.268L463.874 633.135C386.008 633.135 351.741 633.535 348.675 634.602C343.741 636.335 341.875 639.268 341.875 645.668C341.875 649.002 342.808 651.002 345.341 653.002C348.941 655.802 349.608 655.802 461.208 655.802C568.674 655.802 573.875 655.668 583.741 653.135C597.741 649.535 608.674 643.535 619.608 633.268C630.274 623.268 637.741 611.135 642.141 597.135L645.208 587.135V331.802V76.4684L642.008 69.5351C636.275 56.7351 622.941 46.8684 608.275 44.4684C603.075 43.6684 602.808 43.1351 601.208 33.8018C599.341 22.7351 589.074 10.3351 577.208 4.86847C571.608 2.33514 567.741 1.80176 553.875 1.5351C179.133 0.0684334 172.866 0.335095 171 1.5351Z" fill="black"></path><path d="M209.142 144.469C193.412 148.13 191.373 157.415 205.355 162.385C212.638 164.869 217.59 165 353.623 165H494.317L501.89 161.992C512.085 158.2 512.668 150.353 503.638 146.169C497.521 143.422 495.773 143.422 356.827 143.03C247.301 142.899 214.677 143.161 209.142 144.469Z" fill="black"></path><path d="M204.107 191.2C193.861 195.2 193.276 202.8 202.643 207.2C208.791 209.867 211.133 210 293.979 210H379.166L386.192 206.267C393.803 202.133 394.974 199.067 389.998 194.267C384.143 188.4 377.117 188 292.222 188C212.011 188 212.011 188 204.107 191.2Z" fill="black"></path><path d="M206.368 271.152C190.325 276.263 193.534 287.427 211.619 290.386C225.037 292.538 481.145 292.538 494.563 290.386C511.774 287.561 515.566 276.936 500.981 271.69C493.98 269.135 488.73 269 353.383 269C229.412 269 212.202 269.269 206.368 271.152Z" fill="black"></path><path d="M204.439 317.025C194.821 321.837 194.53 328.987 203.564 333.25C209.102 335.862 213.182 336 293.911 336H378.719L385.714 332.562C390.377 330.5 393 327.612 393 325C393 322.387 390.377 319.5 385.714 317.437L378.719 314H294.493C211.142 314 210.267 314 204.439 317.025Z" fill="black"></path><path d="M152.454 448.22L116.937 481.635L99.179 465.596C85.2602 453.121 80.9406 451.339 76.621 456.24C72.3014 460.695 76.141 466.487 93.8995 482.972L116.937 503.912L158.694 464.705C192.771 432.626 199.97 424.161 194.211 420.151C189.411 416.141 180.292 421.933 152.454 448.22Z" fill="#824DEB"></path><path d="M248.91 405.941C240.562 408.271 235.755 414.482 239.044 418.753C244.356 426.129 242.079 426 374.635 426C494.035 426 496.565 426 503.142 423.282C510.225 420.435 512.249 413.835 507.19 409.176C502.13 404.388 492.264 404 372.105 404C275.724 404.129 254.222 404.388 248.91 405.941Z" fill="black"></path><path d="M253.952 450.759C240.262 454.412 238.487 464.153 250.656 469.294C256.74 471.865 261.304 472 326.458 472C399.724 472 405.809 471.594 410.879 465.641C415.442 460.365 414.175 457.118 406.316 452.924L398.964 449H329.5C278.796 449 258.515 449.541 253.952 450.759Z" fill="black"></path><path d="M110.54 331.002C67.3402 337.802 30.2735 365.269 11.7402 404.469C1.60687 425.802 -0.126463 434.202 0.00687009 461.802C0.00687009 484.069 0.273537 486.602 3.7402 497.802C18.9402 547.535 58.0069 582.335 108.407 591.135C129.607 594.869 154.14 592.869 173.474 585.802L182.54 582.602L215.207 615.002C251.74 651.269 255.607 653.935 272.14 655.402C287.607 656.735 301.207 651.402 311.474 640.069C324.94 625.269 327.607 605.669 319.074 587.002C316.807 581.935 308.407 573.002 283.474 548.469L250.807 516.469L254.407 505.935C261.607 485.269 263.74 461.002 260.54 439.802C251.74 383.402 204.007 337.669 146.54 330.602C131.874 328.868 124.407 328.868 110.54 331.002ZM152.274 353.935C193.874 362.469 227.34 395.002 237.474 436.735C240.14 447.802 240.407 472.069 238.007 483.135C228.807 525.135 196.807 558.069 155.607 567.935C138.94 571.935 112.54 571.002 97.4735 565.935C66.4069 555.535 44.0069 535.402 30.5402 506.069C23.4735 490.469 21.3402 480.069 21.3402 461.135C21.3402 442.735 23.8735 431.269 31.2069 415.002C44.8069 385.002 74.8069 361.135 107.874 354.069C120.274 351.402 139.607 351.269 152.274 353.935ZM268.807 565.135C299.874 595.269 302.674 599.135 301.607 610.602C300.807 618.869 295.474 626.869 288.54 630.469C282.807 633.402 272.407 634.069 266.274 631.669C264.274 631.002 249.207 617.002 232.94 600.869L203.474 571.402L209.607 566.869C218.14 560.469 227.74 551.135 233.607 543.402C236.274 539.935 238.94 537.269 239.474 537.402C240.007 537.669 253.207 550.069 268.807 565.135Z" fill="black"></path></svg>